   <svg width="100%" height="100%"  viewBox="0 0 213 472"  xml:space="preserve" preserveAspectRatio="none" fill="none" xmlns="http://www.w3.org/2000/svg">
                   <path d="M212.13 243.51L209.67 242.06C209.35 241.87 209.07 241.63 208.83 241.34L207.35 239.51C207.12 239.23 206.95 238.91 206.84 238.57L205.8 235.28C205.17 233.28 203.95 231.55 202.28 230.29L195.72 225.3L192.36 222.9C192.03 222.66 191.64 222.5 191.24 222.43L191.06 222.4L186.57 207.63L184.06 198.81C184.06 198.81 184.08 198.74 184.08 198.71C184.08 198.61 184.06 198.52 184.01 198.43L183.35 196.34L179.05 182.36C178.25 179.75 177.05 177.28 175.48 175.04L172.77 171.15C172.22 170.36 171.85 169.44 171.69 168.49L170.77 162.97C165.69 137.68 164.95 134.04 164.83 133.48C164.58 132.24 164.32 131 164.06 129.77C163.93 129.15 163.8 128.52 163.67 127.9C163.53 127.2 163.38 126.49 163.23 125.76C161.31 116.24 158.92 104.39 149.03 100.38C148.98 100.36 145.86 99.1 145.84 99.09C144.7 98.67 143.75 98.4 142.94 98.28L124.24 92.41C124.01 92.34 123.8 92.21 123.63 92.05L119.81 88.36C118.64 87.23 117.96 85.71 117.88 84.09L117.58 77.56C117.58 77.56 117.6 75.3 117.52 73.33C117.52 73.33 117.52 73.33 117.52 73.32C120.95 69.82 124.98 64.74 125.93 62.75C126.44 61.69 126.92 60.43 127.37 59.01C129.58 58.71 131.98 53.17 133.07 49.52C133.75 47.24 135.09 41.73 132.98 39.92C132.91 39.86 132.83 39.82 132.76 39.78C132.78 39.37 132.75 38.9 132.7 38.35C132.68 38.12 132.62 37.5 132.64 37.3C132.68 36.98 132.72 36.69 132.77 36.44C133.01 34.8 133.06 34.34 132.79 32.33C132.65 31.31 132.95 30.51 133.32 29.5C133.6 28.76 133.92 27.92 134.03 26.9C134.07 26.48 134.07 26.08 134.05 25.67C133.97 24.42 133.56 23.21 133.17 22.04L132.67 22.13L133.14 21.97L133.11 21.87C132.8 20.95 132.51 20.08 132.4 19.28C131.94 15.71 131.15 13.21 130.04 11.84C129.35 10.99 128.57 10.51 127.93 10.13C127.22 9.71 126.67 9.37 126.22 8.59C126.14 8.44 126.07 8.29 126 8.14L125.91 7.95C125.63 7.3 125.21 6.31 123.94 5.95C123.77 5.9 123.58 5.87 123.39 5.87C123.2 5.27 123.02 4.69 122.87 4.05C122.77 3.64 122.52 3.29 122.15 3.07C121.79 2.85 121.37 2.79 120.97 2.89C120.31 3.05 119.82 3.6 119.8 4.13L119.66 4.66C119.58 4.66 119.51 4.64 119.43 4.64C119.19 3.5 119.1 2.56 119.14 1.65C119.17 1.25 119.04 0.850001 118.75 0.540001C118.47 0.230001 118.09 0.0500009 117.67 0.0400009C117.04 0.0400009 116.44 0.400001 116.25 0.880001L115.91 1.5C115.58 2.06 115.29 2.57 115.01 3.17C114.93 3.17 114.86 3.19 114.79 3.2C114.67 3.21 114.29 3.25 114.17 3.23C113.66 3.12 113.17 2.84 112.59 2.5C111.63 1.93 110.55 1.28 109.04 1.46C108.42 1.54 107.87 1.81 107.48 2C107.15 2.16 106.85 2.31 106.64 2.31C106.42 2.31 106.1 2.14 105.8 1.99C105.34 1.75 104.76 1.46 104.02 1.46C102.78 1.49 102.18 1.97 101.69 2.37C101.47 2.55 101.27 2.71 100.98 2.86C100.55 3.07 100.25 3.08 99.64 3.11C99.4 3.11 99.12 3.13 98.79 3.16C98.25 3.22 97.55 3.25 96.75 3.28H96.44C92.85 3.42 88.39 3.59 86.58 5.81C85.52 7.1 83.59 10.1 82.99 11.87C82.87 12.23 82.79 12.6 82.7 13.05C82.6 13.51 82.51 13.95 82.33 14.27C82.16 14.56 81.88 14.76 81.34 15.12C80.93 15.4 80.46 15.73 80.07 16.23C78.95 17.68 79.26 19.34 79.6 20.45C80.03 21.92 79.73 23.3 79.15 24.94L79.11 25.06C78.87 25.72 78.56 26.54 78.71 27.52C78.77 27.96 78.94 28.31 79.07 28.58L79.12 28.7C79.18 28.83 79.24 28.97 79.25 29.04C79.29 29.36 79.19 29.67 79.03 30.09C78.8 30.76 78.49 31.67 78.89 32.77C79.37 34.09 79.42 34.67 79.25 36.9C79.15 38.14 79.53 39.16 79.94 40.13C79.78 40.16 79.67 40.26 79.49 40.42C76.67 42.89 79.57 52.58 82.09 57.03C83.21 59.01 84.26 60.01 85.22 60.01C85.29 60.01 85.36 59.99 85.42 59.98C86.21 62.33 87 63.68 87.77 64.98C87.9 65.21 88.04 65.43 88.17 65.66C88.78 66.71 92.29 70.57 95.32 73.41C95.3 73.47 95.28 73.52 95.28 73.58L94.81 83.93C94.73 85.64 93.95 87.27 92.67 88.41L89.95 90.8C89.19 91.47 88.31 91.99 87.36 92.33L68.89 98.91L66.3 99.73C61.78 101.44 57.52 105.04 54.91 109.35L54.6 109.86C52.52 113.29 51.06 117.01 50.24 120.93L47.56 133.81L41.63 163.32L40.47 170.27L37.73 174.21C35.63 177.22 34.02 180.53 32.94 184.04L29.02 196.77L25.83 207.96L21.4 222.73L21.1 222.78C20.74 222.85 20.39 222.99 20.09 223.21L16.67 225.66L8.86 231.59C8.02 232.23 7.4 233.11 7.08 234.12L5.78 238.24C5.53 239.04 5.13 239.77 4.6 240.43L3.45 241.84C3.29 242.03 3.1 242.2 2.89 242.32L0.269998 243.86C0.0499976 243.99 -0.0700025 244.25 -0.0200025 244.51L0.0499975 244.85C0.379998 246.52 1.68 247.81 3.34 248.14C4.27 248.33 5.22 248.23 6.09 247.85L7.54 247.23L4.57 258.63C4.46 259.04 4.49 259.49 4.65 259.88L5.07 260.92C5.13 261.07 5.17 261.23 5.18 261.39L5.31 263.28C5.34 263.73 5.55 264.15 5.89 264.45L6.59 265.08C6.98 265.43 7.49 265.62 8.01 265.62C8.15 265.62 8.29 265.61 8.42 265.58L11.71 264.92C12.08 264.85 12.43 264.7 12.75 264.48L15.29 262.68L17.21 262.44C17.89 262.36 18.5 261.99 18.89 261.43L26.08 251.15C26.84 250.06 27.5 248.9 28.04 247.69L30.04 243.21C30.22 242.81 30.36 242.38 30.45 241.94L32.76 230.56C32.82 230.24 32.82 229.92 32.76 229.6L45.71 204.42L50.57 196.15C52.57 192.75 54.08 189.1 55.07 185.28L57.41 176.24L69.32 143.5C70.89 152.45 73.08 161.73 73.27 162.51L74.63 184.68L72.95 193.62C72.8 193.62 72.65 193.64 72.51 193.69C72.01 193.86 71.64 194.31 71.57 194.83L71.04 199.03L66.86 213.64C65.43 218.64 64.49 223.81 64.09 228.99L63.82 232.41C63.82 232.41 60.29 257.23 60.27 257.38C59.96 259.56 62.04 260.49 63.78 261.06C63.78 261.06 63.78 261.06 63.78 261.07L63.61 269.48L64.11 285.15C64.25 289.48 64.67 293.85 65.36 298.14L67.78 313.11L69.66 328.47L68.72 341.59L67.79 346.13C66.73 351.29 66.35 356.57 66.64 361.83L67.11 370.26C67.34 374.31 67.81 378.39 68.51 382.39L70.98 396.43C71.36 398.61 71.82 400.8 72.33 402.94L77.63 425.03L75.96 429.82C75.96 429.82 75.94 429.89 75.93 429.93L75.23 434.38L73.82 439.18L71.29 449.12L67.82 460.44C67.33 462.03 67.56 463.76 68.46 465.16L68.86 465.78C68.91 465.87 68.99 465.94 69.08 465.99L73.61 468.54C73.66 468.57 73.72 468.59 73.78 468.6L79.35 469.83L87.65 471.25C87.9 471.29 88.14 471.31 88.39 471.31C89.38 471.31 90.36 470.97 91.14 470.33L91.84 469.76C92.87 468.92 93.59 467.8 93.92 466.52L94.48 464.35C94.48 464.35 94.5 464.26 94.5 464.21L94.8 448.22C94.8 448.22 94.8 448.16 94.8 448.13L93.68 439.68L94.16 435.67C94.31 434.39 94.21 433.1 93.86 431.86L92.49 427.07L91.33 413.08C91.03 409.5 91.04 405.88 91.34 402.3L92.59 387.62C92.71 386.27 92.9 384.92 93.17 383.59L93.43 382.28C93.93 379.81 94.18 377.28 94.18 374.76V363.22C94.18 360.91 94.05 358.57 93.81 356.27L93.59 354.22C93.36 352.13 93.45 350.02 93.86 347.95L94.58 344.27C95.1 341.61 95.44 338.88 95.58 336.17L96.01 328.09C96.21 324.26 96.71 320.42 97.48 316.67L100.55 301.82L103.98 282.37C104.79 277.76 105.16 272.88 105.04 268.25V268.09C105.45 267.85 105.76 267.46 105.87 266.99L106.48 264.4L107.1 267.01C107.22 267.53 107.58 267.96 108.04 268.2C108.04 268.73 108.04 269.26 108.04 269.79C108 274.24 108.35 278.93 109.06 283.36L112.02 301.85L115.09 316.68C115.87 320.43 116.36 324.28 116.56 328.1L116.98 336.1C117.13 338.86 117.47 341.64 118 344.36L118.66 347.75C119.09 349.96 119.19 352.21 118.95 354.44L118.71 356.65C118.49 358.71 118.38 360.8 118.38 362.87V374.92C118.38 377.34 118.62 379.77 119.1 382.14L119.35 383.39C119.65 384.85 119.86 386.35 119.99 387.83L121.28 402.98C121.55 406.11 121.55 409.28 121.29 412.4L120.08 427.06L118.97 430.93C118.44 432.79 118.29 434.7 118.52 436.61L118.89 439.67L117.77 448.12C117.77 448.12 117.77 448.18 117.77 448.21L118.07 464.2C118.07 464.2 118.07 464.3 118.09 464.34L118.82 467.14C119.05 468.01 119.53 468.77 120.23 469.34L121.56 470.43C122.28 471.02 123.17 471.33 124.09 471.33C124.31 471.33 124.54 471.31 124.76 471.27L133.25 469.81L138.79 468.59C138.85 468.58 138.91 468.56 138.96 468.53L143.49 465.98C143.58 465.93 143.65 465.86 143.71 465.77L144 465.31C144.96 463.8 145.21 461.96 144.69 460.25L141.29 449.14L138.75 439.15L137.34 434.37L136.64 429.92C136.64 429.92 136.63 429.85 136.61 429.81L134.94 425.02L140.09 403.53C140.7 400.98 141.24 398.39 141.69 395.8L144.01 382.61C144.74 378.45 145.23 374.21 145.47 369.99L146 360.48C146.25 356.1 145.92 351.7 145.05 347.41L143.86 341.57L142.92 328.45L144.8 313.12L147.32 297.48C147.94 293.63 148.37 289.71 148.6 285.82L149.58 269.12C149.72 266.73 149.71 264.33 149.54 261.96L149.5 261.4C150 261.23 150.49 261.07 150.96 260.92C152.29 260.49 153.09 259.18 152.87 257.82L148.77 232.03L148.66 230.53C148.22 224.33 147.13 218.15 145.41 212.17L141.5 198.57L140.96 194.62C140.89 194.08 140.49 193.64 139.95 193.51C139.89 193.5 139.83 193.5 139.77 193.49L138.07 184.07L139.05 162.36L142.03 143.7L155.4 176.15C155.43 176.23 155.46 176.31 155.48 176.39L157.95 186.99C158.53 189.48 159.48 191.85 160.77 194.06L166.68 204.11L179.64 229.32V229.38C179.57 229.65 179.57 229.92 179.62 230.18L181.8 240.94C181.98 241.85 182.27 242.74 182.65 243.59L184.84 248.49C185.06 248.98 185.32 249.44 185.63 249.88L193.37 260.93C193.85 261.62 194.6 262.07 195.43 262.17L196.98 262.36C197.06 262.37 197.14 262.4 197.21 262.45L199.87 264.33C200.04 264.45 200.24 264.54 200.44 264.58L204.11 265.31C204.23 265.33 204.35 265.35 204.47 265.35C204.93 265.35 205.38 265.18 205.72 264.88L206.64 264.06C206.9 263.83 207.06 263.5 207.09 263.15L207.24 260.86L207.74 259.62C207.91 259.2 207.94 258.74 207.82 258.3L204.86 246.94L206.63 247.7C207.29 247.98 208.02 248.06 208.72 247.92C210.59 247.55 212.05 246.09 212.42 244.22C212.47 243.96 212.35 243.7 212.13 243.57V243.51ZM79.87 32.36C79.59 31.59 79.8 30.96 80.01 30.35C80.19 29.85 80.34 29.38 80.27 28.85C80.24 28.64 80.16 28.44 80.07 28.23L80.01 28.09C79.89 27.86 79.77 27.6 79.73 27.3C79.62 26.62 79.81 26.06 80.08 25.33L80.12 25.21C80.77 23.39 81.09 21.83 80.58 20.1C80.29 19.12 80.06 17.85 80.89 16.77C81.18 16.39 81.55 16.14 82 15.83C82.46 15.53 82.93 15.21 83.22 14.7C83.48 14.25 83.59 13.73 83.72 13.1C83.79 12.78 83.86 12.45 83.96 12.13C84.52 10.49 86.39 7.59 87.38 6.38C88.91 4.51 93.12 4.36 96.51 4.23H96.82C97.65 4.19 98.37 4.17 98.94 4.1C99.23 4.07 99.49 4.06 99.78 4.05C100.37 4.03 100.83 4.01 101.45 3.71C101.84 3.51 102.11 3.3 102.36 3.1C102.8 2.75 103.17 2.44 104.06 2.42C104.55 2.42 104.97 2.63 105.39 2.85C105.76 3.04 106.18 3.26 106.65 3.27C107.1 3.27 107.53 3.06 107.95 2.86C108.3 2.68 108.74 2.47 109.18 2.41C110.34 2.28 111.2 2.78 112.17 3.36C112.73 3.69 113.32 4.03 114 4.18C114.24 4.22 114.54 4.2 114.94 4.16C115.08 4.14 115.23 4.12 115.38 4.12H115.88V3.71C116.16 3.08 116.45 2.56 116.81 1.96L117.18 1.27C117.23 1.14 117.44 1 117.65 1C117.65 1 117.65 1 117.66 1C117.8 1 117.93 1.06 118.02 1.17C118.12 1.28 118.16 1.41 118.15 1.55C118.11 2.68 118.23 3.81 118.55 5.23L118.65 5.68L119.11 5.62C119.36 5.59 119.64 5.62 119.86 5.69L120.37 5.87L120.78 4.25C120.78 4.09 120.95 3.89 121.2 3.83C121.35 3.79 121.5 3.82 121.62 3.9C121.75 3.98 121.85 4.11 121.88 4.25C122.05 4.99 122.27 5.68 122.5 6.41L122.69 6.91L123.06 6.87C123.26 6.85 123.46 6.85 123.64 6.9C124.46 7.13 124.72 7.74 124.97 8.35L125.06 8.54C125.14 8.72 125.22 8.9 125.32 9.07C125.9 10.08 126.65 10.54 127.38 10.98C127.97 11.34 128.65 11.75 129.22 12.46C130.21 13.69 130.94 16.03 131.37 19.41C131.49 20.31 131.8 21.22 132.12 22.18L132.18 22.35C132.55 23.46 132.94 24.61 133.01 25.72C133.03 26.08 133.02 26.43 132.99 26.79C132.89 27.67 132.61 28.41 132.33 29.14C131.95 30.19 131.58 31.19 131.75 32.44C132 34.39 131.95 34.75 131.73 36.26C131.69 36.51 131.64 36.81 131.6 37.14C131.56 37.4 131.6 37.82 131.65 38.42C131.68 38.76 131.71 39.15 131.71 39.49C131.51 39.56 131.34 39.72 131.3 39.95C131.26 40.16 131.34 40.36 131.48 40.5C131.41 40.63 131.33 40.76 131.24 40.91C131.05 41.2 130.87 41.49 130.81 41.82C130.78 41.98 130.76 42.12 130.73 42.3C130.61 43.13 130.51 43.84 129.78 44.51C129.49 44.79 128.79 45.3 128.4 45.3C128.29 45.3 128.19 45.26 128.13 45.18C127.95 44.95 128.05 44.41 128.13 43.97C128.17 43.81 128.2 43.68 128.2 43.57C128.26 42.54 128.06 41.91 127.79 41.1C127.75 40.99 127.71 40.88 127.68 40.77L127.61 40.56C127.39 39.85 127.54 39.1 127.67 38.43L127.69 38.3C127.75 37.97 127.8 37.67 127.82 37.37C127.89 36.01 127.67 34.46 127.17 32.74L127.11 32.56C127.08 32.47 127.05 32.37 127.02 32.31C126.89 31.9 126.76 31.51 126.73 31.05C126.71 30.72 126.73 30.42 126.77 30.11C126.8 29.65 126.84 29.21 126.69 28.72C126.57 28.35 126.39 28.08 126.18 27.78C125.92 27.4 125.68 27.04 125.66 26.43C125.57 23.84 124.56 23.21 123.72 23.13C123.63 23.13 123.54 23.12 123.44 23.12C122.69 23.12 122.04 23.43 121.37 23.76C120.77 24.05 120.16 24.36 119.44 24.4C117.99 24.49 117.21 24.58 115.83 25.13C114.83 25.51 114.24 25.39 113.58 25.19L113.46 25.15C113.17 25.07 112.85 24.97 112.45 24.92C111.78 24.83 111.16 25.1 110.5 25.4C110.03 25.62 109.44 25.88 108.81 25.95C107.24 26.11 105.57 25.9 104.02 25.68L103.72 25.64C102.57 25.48 101.48 25.33 100.34 25.33C99.99 25.33 99.58 25.33 99.16 25.39C97.1 25.6 96.23 25.25 94.76 24.38C93.81 23.83 92.67 23.52 91.53 23.52C89.12 23.52 87.25 24.77 86.52 26.86C86.37 27.29 86.42 27.64 86.47 27.97C86.52 28.28 86.56 28.59 86.46 28.96C86.37 29.27 86.16 29.56 85.9 29.9C85.63 30.23 85.36 30.59 85.3 30.96C85.21 31.45 85.34 31.83 85.49 32.23C85.63 32.62 85.74 32.95 85.71 33.37C85.66 34.13 85.39 34.72 85.15 35.24C84.84 35.89 84.52 36.57 84.65 37.59C84.71 37.95 84.65 38.32 84.61 38.68V38.79C84.54 39.19 84.47 39.61 84.56 39.97C84.6 40.15 84.65 40.3 84.74 40.47C84.86 40.74 84.97 40.99 84.9 41.42C84.87 41.65 84.8 41.87 84.74 42.08L84.7 42.21C84.61 42.49 84.52 42.78 84.5 43.09C84.5 43.23 84.52 43.44 84.56 43.65C84.61 44 84.66 44.37 84.56 44.67C84.36 45.2 83.47 45.53 83.11 45.11C82.98 44.95 82.96 44.77 82.94 44.61C82.94 44.56 82.94 44.37 82.87 44.23L82.82 44.12L82.73 44.05C82.07 43.55 81.84 42.64 81.63 41.84L81.6 41.72C81.52 41.41 81.45 41.13 81.35 40.87C81.35 40.7 81.28 40.53 81.16 40.42L81.01 40.07C80.57 39.06 80.16 38.1 80.25 36.96C80.43 34.59 80.36 33.87 79.83 32.41L79.87 32.36ZM82.48 44.45L82.42 44.48V44.46H82.48V44.45ZM89.28 64.99C89.15 64.76 89.01 64.53 88.87 64.3C88.06 62.93 87.22 61.52 86.4 58.82C86.3 58.5 85.96 58.31 85.63 58.41C85.46 58.46 85.34 58.58 85.26 58.72C85.03 58.72 84.31 58.34 83.19 56.37C80.41 51.45 78.45 42.93 80.34 41.28C80.36 41.31 80.41 41.34 80.51 41.38C80.56 41.55 80.61 41.73 80.66 41.93L80.69 42.05C80.91 42.9 81.18 43.95 81.98 44.67C82 44.9 82.05 45.33 82.39 45.73C82.71 46.09 83.15 46.29 83.64 46.29C84.44 46.29 85.26 45.73 85.54 44.98C85.73 44.44 85.66 43.91 85.59 43.44C85.56 43.29 85.54 43.15 85.54 43.07C85.54 42.91 85.62 42.69 85.71 42.42L85.74 42.32C85.81 42.07 85.89 41.81 85.93 41.53C86.04 40.81 85.83 40.34 85.68 39.99C85.63 39.89 85.6 39.82 85.58 39.71C85.54 39.52 85.58 39.2 85.63 38.88V38.77C85.7 38.36 85.76 37.9 85.68 37.4C85.59 36.71 85.78 36.28 86.09 35.61C86.35 35.04 86.68 34.33 86.74 33.39C86.79 32.73 86.59 32.19 86.46 31.84C86.34 31.49 86.28 31.31 86.32 31.08C86.34 30.98 86.47 30.78 86.77 30.4C87.03 30.06 87.32 29.66 87.46 29.17C87.61 28.61 87.56 28.14 87.5 27.76C87.46 27.48 87.44 27.33 87.5 27.14C88.08 25.47 89.6 24.47 91.56 24.47C92.52 24.47 93.49 24.73 94.28 25.19C95.56 25.95 96.61 26.39 98.14 26.39C98.48 26.39 98.87 26.38 99.31 26.33C99.61 26.29 99.93 26.28 100.38 26.28C101.46 26.28 102.51 26.42 103.63 26.58L103.92 26.62C105.52 26.85 107.21 27.07 108.96 26.9C109.75 26.81 110.45 26.49 111 26.24C111.52 26.01 111.96 25.81 112.36 25.86C112.7 25.9 112.97 25.98 113.23 26.06L113.37 25.58L113.35 26.09C114.08 26.3 114.97 26.48 116.24 26C117.5 25.5 118.15 25.42 119.55 25.34C120.47 25.28 121.23 24.9 121.9 24.57C122.53 24.27 123.07 24.01 123.66 24.07C124.49 24.15 124.66 25.57 124.69 26.41C124.72 27.32 125.09 27.86 125.41 28.33C125.57 28.56 125.69 28.74 125.76 28.97C125.85 29.27 125.83 29.59 125.8 30.01C125.77 30.28 125.74 30.65 125.76 31.06C125.8 31.65 125.96 32.14 126.11 32.59C126.14 32.66 126.16 32.74 126.19 32.82L126.25 32.99C126.71 34.58 126.91 36.02 126.85 37.26C126.83 37.52 126.78 37.78 126.73 38.07L126.71 38.2C126.69 38.28 126.68 38.37 126.66 38.45C126.33 37.68 125.13 36.4 124.62 36.25C123.09 35.79 121 35.86 119.4 35.86C117.72 35.86 115.83 35.64 114.17 35.91C112.86 36.13 110.41 39.01 112.04 39.13C113.67 39.26 115.34 38.05 116.93 37.86C118.61 37.65 122.68 36.95 124.35 37.24C125.01 37.35 126.33 39.05 126.51 39.03C126.53 39.03 126.54 39.02 126.56 39.01C126.49 39.57 126.47 40.18 126.66 40.81L126.73 41.02C126.77 41.14 126.81 41.27 126.85 41.39C127.09 42.14 127.25 42.63 127.2 43.5C127.2 43.55 127.18 43.61 127.15 43.74C127.03 44.38 126.88 45.17 127.34 45.75C127.59 46.07 127.98 46.26 128.4 46.26C129.36 46.26 130.46 45.19 130.46 45.19C131.44 44.29 131.58 43.29 131.72 42.36C131.74 42.24 131.76 42.1 131.79 41.96C131.82 41.81 131.94 41.62 132.07 41.42L132.12 41.33C132.18 41.24 132.24 41.13 132.3 41.02C133.14 42.14 132.98 45.22 131.83 49.1C130.58 53.33 128.68 56.73 127.54 57.54C127.46 57.41 127.34 57.3 127.18 57.25C126.86 57.16 126.51 57.34 126.42 57.67C125.91 59.42 125.35 60.93 124.77 62.15C123.5 64.79 116.14 73.63 113.12 75.42C109.89 77.34 102.29 76.87 99.38 75.08C96.62 73.38 89.94 66.17 89.23 64.94L89.28 64.99ZM102.79 282.1L99.36 301.53L96.29 316.36C95.5 320.17 95 324.08 94.79 327.97L94.36 336.05C94.22 338.7 93.89 341.37 93.38 343.98L92.66 347.66C92.23 349.85 92.14 352.08 92.38 354.3L92.6 356.35C92.84 358.6 92.97 360.9 92.97 363.17V374.71C92.97 377.15 92.72 379.59 92.24 381.99L91.98 383.3C91.7 384.67 91.5 386.07 91.38 387.47L90.13 402.15C89.82 405.79 89.82 409.49 90.12 413.13L91.28 427.18C91.28 427.18 91.29 427.26 91.3 427.3L92.69 432.15C93 433.24 93.09 434.36 92.95 435.48L92.46 439.57C92.46 439.62 92.46 439.67 92.46 439.72L93.59 448.2L93.3 464.07L92.75 466.17C92.48 467.2 91.91 468.1 91.08 468.77L90.38 469.34C89.68 469.91 88.77 470.15 87.88 470L79.61 468.58L74.16 467.38L69.84 464.95L69.53 464.46C68.83 463.36 68.64 462.01 69.03 460.76L72.5 449.42L75.03 439.47L76.45 434.65C76.45 434.65 76.46 434.6 76.47 434.57L77.17 430.14L78.88 425.23C78.92 425.12 78.92 425 78.9 424.89L73.56 402.62C73.05 400.5 72.6 398.34 72.22 396.18L69.75 382.14C69.06 378.19 68.59 374.16 68.37 370.16L67.9 361.73C67.61 356.58 67.99 351.4 69.02 346.34L69.96 341.77C69.96 341.77 69.96 341.72 69.97 341.69L70.91 328.47C70.91 328.47 70.91 328.39 70.91 328.35L69.02 312.91L66.6 297.92C65.92 293.69 65.5 289.37 65.37 285.09L64.87 269.46L65.03 261.43C65.17 261.48 65.31 261.52 65.43 261.57C72.46 264.18 80.86 267 89.89 268.06C93.46 268.48 97.01 268.61 100.96 268.71C100.99 268.71 101.02 268.71 101.05 268.71L103.84 268.38C103.95 272.9 103.59 277.65 102.8 282.13L102.79 282.1ZM148.35 269.02L147.37 285.72C147.14 289.57 146.72 293.45 146.1 297.25L143.57 312.91L141.68 328.33C141.68 328.33 141.68 328.41 141.68 328.45L142.62 341.67C142.62 341.67 142.62 341.72 142.63 341.75L143.83 347.63C144.69 351.82 145 356.12 144.76 360.39L144.23 369.9C144 374.07 143.51 378.26 142.79 382.37L140.47 395.56C140.02 398.12 139.49 400.69 138.88 403.21L133.69 424.87C133.66 424.98 133.67 425.1 133.71 425.21L135.42 430.11L136.12 434.54C136.12 434.54 136.13 434.59 136.14 434.62L137.55 439.42L140.09 449.42L143.5 460.56C143.92 461.92 143.72 463.4 142.95 464.6L142.74 464.93L138.42 467.36L133 468.56L124.54 470.01C123.75 470.15 122.94 469.93 122.32 469.43L120.99 468.34C120.5 467.94 120.15 467.4 119.99 466.79L119.28 464.06L118.99 448.19L120.12 439.71C120.12 439.66 120.12 439.61 120.12 439.56L119.74 436.42C119.53 434.67 119.67 432.92 120.15 431.22L121.27 427.29C121.27 427.29 121.29 427.21 121.29 427.17L122.51 412.45C122.77 409.25 122.77 406.01 122.5 402.82L121.21 387.67C121.08 386.14 120.86 384.6 120.55 383.09L120.3 381.84C119.84 379.55 119.6 377.2 119.6 374.86V362.81C119.6 360.78 119.71 358.74 119.93 356.72L120.17 354.51C120.42 352.15 120.32 349.78 119.87 347.45L119.21 344.06C118.69 341.4 118.35 338.68 118.21 335.97L117.79 327.97C117.59 324.08 117.08 320.18 116.29 316.37L113.23 301.56L110.28 283.1C109.58 278.74 109.24 274.12 109.28 269.74C109.28 269.3 109.28 268.86 109.28 268.42C110.22 268.53 111.98 268.73 111.98 268.74C112.57 268.81 113.2 268.84 113.89 268.84C114.86 268.84 115.84 268.77 116.78 268.71C117.26 268.68 117.74 268.64 118.22 268.62C118.98 268.58 119.75 268.56 120.5 268.55C121.84 268.52 123.22 268.49 124.59 268.34C131.56 267.58 138.25 265.26 144.72 263.01L145.68 262.68C146.62 262.35 147.47 262.06 148.28 261.79L148.3 262.04C148.46 264.35 148.48 266.71 148.34 269.04L148.35 269.02ZM139.66 194.65C139.66 194.65 139.74 194.7 139.75 194.74L140.3 198.74C140.3 198.74 140.3 198.8 140.32 198.83L144.24 212.47C145.94 218.37 147.02 224.47 147.45 230.58L147.56 232.11C147.56 232.11 147.56 232.15 147.56 232.16L151.66 257.97C151.78 258.73 151.33 259.47 150.58 259.71C149.02 260.22 147.34 260.79 145.3 261.5L144.34 261.83C137.93 264.06 131.31 266.36 124.48 267.1C123.17 267.24 121.81 267.27 120.5 267.3C119.74 267.32 118.96 267.34 118.18 267.37C117.69 267.39 117.21 267.43 116.72 267.46C115.8 267.52 114.84 267.59 113.91 267.59C113.26 267.59 112.69 267.56 112.14 267.5C112.08 267.5 108.86 267.12 108.86 267.12C108.6 267.09 108.38 266.9 108.32 266.65L107.32 262.43C107.23 262.05 106.9 261.79 106.51 261.79C106.12 261.79 105.79 262.05 105.7 262.43L104.71 266.63C104.66 266.85 104.47 267.02 104.23 267.05L100.94 267.44C97.04 267.33 93.53 267.21 90.03 266.8C81.13 265.75 72.81 262.96 65.86 260.37C65.57 260.26 65.23 260.16 64.88 260.05C62.93 259.44 61.33 258.84 61.52 257.49C61.54 257.34 65.07 232.52 65.07 232.49L65.34 229.03C65.74 223.93 66.66 218.85 68.07 213.92L72.26 199.27C72.26 199.27 72.27 199.21 72.28 199.18L72.82 194.93C72.82 194.87 72.87 194.82 72.93 194.8C73 194.78 73.07 194.8 73.12 194.84C73.38 195.1 73.63 195.35 73.88 195.6C74.94 196.67 75.94 197.69 77.45 198.44C83.28 201.32 90.04 202.35 95.29 202.92C98.76 203.3 102.33 203.49 105.9 203.49C112.71 203.49 119.64 202.8 126.5 201.44C130.8 200.59 136.18 199.05 139.53 194.68C139.55 194.65 139.59 194.63 139.67 194.63L139.66 194.65ZM208.48 246.65C208.02 246.74 207.54 246.69 207.11 246.51L204.5 245.39C204.23 245.27 203.91 245.32 203.69 245.51C203.46 245.7 203.37 246 203.44 246.3L206.63 258.55C206.68 258.74 206.67 258.93 206.59 259.11L206.06 260.44C206.04 260.5 206.02 260.56 206.02 260.63L205.86 263.02C205.86 263.02 205.84 263.08 205.82 263.09L204.9 263.91C204.75 264.04 204.54 264.1 204.34 264.06L200.67 263.33C200.67 263.33 200.6 263.31 200.57 263.29L197.91 261.41C197.68 261.25 197.41 261.14 197.13 261.11L195.58 260.92C195.09 260.86 194.65 260.59 194.37 260.19L186.63 249.14C186.37 248.76 186.14 248.36 185.96 247.95L183.77 243.05C183.43 242.28 183.17 241.48 183 240.66L180.82 229.9C180.8 229.8 180.8 229.7 180.82 229.6L180.88 229.32C180.91 229.18 180.89 229.04 180.83 228.91L167.75 203.48L161.83 193.4C160.6 191.31 159.7 189.04 159.15 186.68L156.69 176.08C156.66 175.93 156.61 175.79 156.55 175.65L142.25 140.94C142.14 140.68 141.87 140.52 141.59 140.57C141.31 140.61 141.1 140.84 141.07 141.12C141.01 141.76 140.96 142.42 140.9 143.1L137.86 162.17C137.86 162.17 137.86 162.22 137.86 162.24L136.88 184.05C136.88 184.05 136.88 184.14 136.88 184.19L138.64 193.89C138.64 193.89 138.59 193.93 138.57 193.96C135.47 198.01 130.37 199.45 126.28 200.27C119.5 201.61 112.65 202.29 105.92 202.29C102.4 202.29 98.87 202.1 95.44 201.73C90.3 201.17 83.67 200.17 78.02 197.37C76.69 196.71 75.8 195.81 74.78 194.77C74.58 194.56 74.37 194.35 74.15 194.14L75.91 184.81C75.91 184.81 75.92 184.71 75.91 184.66L74.54 162.37C74.54 162.37 74.54 162.3 74.52 162.27C74.49 162.16 71.81 150.89 70.19 141C70.14 140.72 69.92 140.51 69.64 140.49C69.37 140.47 69.1 140.63 69.01 140.89L56.3 175.84C56.3 175.84 56.29 175.88 56.28 175.9L53.93 184.97C52.97 188.68 51.5 192.23 49.56 195.53L44.68 203.83L31.61 229.23C31.54 229.36 31.53 229.5 31.56 229.64L31.6 229.82C31.63 229.98 31.64 230.14 31.6 230.3L29.29 241.68C29.22 242.03 29.11 242.37 28.97 242.69L26.97 247.17C26.46 248.31 25.84 249.4 25.12 250.43L17.93 260.71C17.74 260.98 17.44 261.17 17.1 261.21L15.18 261.45C14.99 261.47 14.8 261.55 14.64 261.66L12.08 263.47C11.91 263.59 11.72 263.67 11.51 263.71L8.22 264.37C7.94 264.43 7.65 264.35 7.44 264.16L6.74 263.53C6.64 263.44 6.58 263.32 6.57 263.19L6.44 261.3C6.42 261.01 6.36 260.72 6.25 260.45L5.83 259.41C5.77 259.26 5.76 259.08 5.8 258.92L9.08 246.31C9.14 246.08 9.06 245.84 8.89 245.69C8.71 245.54 8.46 245.5 8.25 245.59L5.65 246.7C5.01 246.98 4.31 247.05 3.62 246.91C2.47 246.68 1.57 245.8 1.31 244.67L3.55 243.35C3.89 243.15 4.19 242.89 4.44 242.58L5.59 241.17C6.22 240.4 6.69 239.53 6.99 238.58L8.29 234.46C8.53 233.69 9 233.03 9.64 232.54L17.43 226.62L20.84 224.18C20.99 224.07 21.17 224 21.36 223.96L22.03 223.84C22.26 223.8 22.44 223.63 22.51 223.41L27.05 208.27L30.24 197.09L34.16 184.37C35.2 180.98 36.76 177.79 38.78 174.88L41.6 170.83C41.65 170.76 41.69 170.67 41.7 170.58L42.88 163.51L48.81 134.02L51.49 121.14C52.28 117.36 53.69 113.76 55.7 110.45L56.01 109.94C58.49 105.85 62.51 102.45 66.75 100.84L69.33 100.02L87.82 93.44C88.93 93.05 89.93 92.45 90.81 91.68L93.53 89.28C95.06 87.93 96 85.98 96.09 83.94L96.52 74.4C97.4 75.17 98.19 75.81 98.8 76.18C100.58 77.27 103.87 77.92 107.07 77.92C109.66 77.92 112.18 77.49 113.81 76.53C114.49 76.12 115.37 75.39 116.34 74.47C116.38 76.05 116.37 77.52 116.37 77.57L116.67 84.13C116.76 86.07 117.58 87.88 118.97 89.23L122.79 92.92C123.1 93.22 123.48 93.44 123.89 93.57L142.64 99.45C142.64 99.45 142.7 99.47 142.74 99.47C143.47 99.57 144.37 99.83 145.42 100.21C147.8 101.17 148.42 101.42 148.59 101.49C157.87 105.25 160.19 116.74 162.05 125.97C162.2 126.7 162.34 127.42 162.49 128.12C162.62 128.75 162.75 129.37 162.88 130C163.14 131.23 163.4 132.47 163.65 133.7C163.68 133.83 169.58 163.17 169.58 163.17L170.5 168.67C170.69 169.8 171.13 170.89 171.78 171.82L174.49 175.71C175.98 177.85 177.13 180.2 177.89 182.69L182.22 196.75L185.41 207.96L190.01 223.1C190.08 223.32 190.26 223.48 190.49 223.53L191.04 223.63C191.26 223.67 191.48 223.76 191.67 223.9L195.01 226.29L201.56 231.27C203.03 232.38 204.09 233.9 204.65 235.66L205.69 238.96C205.85 239.45 206.09 239.91 206.42 240.31L207.9 242.14C208.23 242.54 208.62 242.88 209.07 243.14L211.13 244.35C210.74 245.53 209.75 246.43 208.5 246.67L208.48 246.65ZM107.93 198.47C107.68 198.77 107.34 198.88 107.01 198.82C106.82 198.79 106.64 198.7 106.47 198.55C105.66 197.85 105.83 195.65 106.79 195.08C108.08 194.31 108.59 197.68 107.93 198.46V198.47ZM105.66 255.89C105.57 256.37 105.18 256.69 104.62 256.2C103.25 255 101.84 253.84 100.45 252.66C99.04 251.53 98.26 250 98.35 248.2L98.45 243.15C98.45 243.05 98.53 242.97 98.64 242.96C98.74 242.96 98.99 243.3 99 243.4L99.36 248.52C99.29 250.08 100.02 250.87 101.44 252.22C101.92 252.57 102.45 252.96 103.06 253.37C103.85 253.9 104.31 254.28 105.33 255.16C105.58 255.38 105.73 255.59 105.67 255.89H105.66ZM88.57 37.91C87.91 38.05 86.65 39.79 86.47 39.78C85.55 39.71 87.57 37.17 88.27 36.93C89.79 36.42 91.87 36.41 93.47 36.35C95.15 36.29 97.03 36 98.7 36.22C100.02 36.39 102.56 39.18 100.95 39.37C99.33 39.55 97.61 38.41 96.01 38.27C94.32 38.12 90.23 37.57 88.57 37.92V37.91ZM113.85 43.47C112.95 41.81 117.49 41 118.38 40.9C120.43 40.67 122.74 40.94 124.27 42.56C125.02 43.35 125.11 44.5 123.87 43.57C122.87 42.82 122.37 42.93 121.75 42.56C122.54 43.81 121.75 46.77 119.49 47.26C117.85 47.62 116.23 46.69 115.83 45.1C115.72 44.67 115.78 43.35 115.86 42.94C114.96 43.15 114.06 43.88 113.84 43.47H113.85ZM97.35 43.27C97.45 43.68 97.55 45 97.46 45.44C97.12 47.06 95.51 48.05 93.86 47.75C91.56 47.33 90.66 44.38 91.42 43.1C90.81 43.5 90.3 43.4 89.32 44.2C88.11 45.19 88.16 44.03 88.88 43.2C90.36 41.51 92.68 41.15 94.75 41.31C95.65 41.38 100.25 42.03 99.41 43.73C99.2 44.15 98.27 43.45 97.35 43.27ZM102.43 58.67C102.21 57.02 104.36 58.79 104.76 58.97C105.52 59.31 106.33 59.43 107.17 59.26C107.7 59.16 108.22 58.75 108.75 58.44C109.2 58.19 109.65 58 110.12 58.12C111.25 58.41 109.07 59.68 108.68 59.84C107.78 60.22 106.74 60.25 105.75 60.14C104.82 60.04 102.56 59.67 102.43 58.66V58.67ZM99.07 63.49C99.07 63.49 102.78 65.24 106.36 64.99C111.29 64.66 115.8 62.46 114.55 63.65C112.87 65.24 110.96 66.33 106.81 66.49C100.31 66.74 97.5 63.48 99.07 63.48V63.49ZM109.33 68.93C109.73 69.43 108.81 69.91 108.5 70.02C107.78 70.28 105.23 70.11 104.6 69.85C103.83 69.54 103.79 68.88 104.67 68.85C105.32 68.83 105.93 69.16 106.57 69.2C107.1 69.23 107.69 69.33 108.22 69.25C108.59 69.19 109.07 68.6 109.34 68.93H109.33ZM134.21 143.03C134.21 143.96 132.93 144.71 131.34 144.71C129.75 144.71 128.47 143.96 128.47 143.03C128.47 142.1 129.75 141.35 131.34 141.35C132.93 141.35 134.21 142.1 134.21 143.03ZM83.63 143.03C83.63 143.96 82.35 144.71 80.76 144.71C79.17 144.71 77.89 143.96 77.89 143.03C77.89 142.1 79.17 141.35 80.76 141.35C82.35 141.35 83.63 142.1 83.63 143.03Z" fill="#162032"/>
                </svg>