<svg xmlns="http://www.w3.org/2000/svg" width="11.538" height="10" viewBox="0 0 11.538 10">
  <g id="Group_495" data-name="Group 495" transform="translate(0 0)">
    <path id="Path_149" data-name="Path 149" d="M11.088,38.529A1.482,1.482,0,0,0,10,38.079H8.654l-.306-.817a1.116,1.116,0,0,0-.418-.508,1.07,1.07,0,0,0-.622-.213H4.231a1.07,1.07,0,0,0-.622.213,1.116,1.116,0,0,0-.418.508l-.306.817H1.538a1.482,1.482,0,0,0-1.088.451A1.482,1.482,0,0,0,0,39.617V45a1.482,1.482,0,0,0,.451,1.088,1.482,1.482,0,0,0,1.088.451H10A1.539,1.539,0,0,0,11.538,45V39.617A1.482,1.482,0,0,0,11.088,38.529ZM7.671,44.211a2.593,2.593,0,0,1-1.9.79,2.593,2.593,0,0,1-1.9-.79,2.684,2.684,0,0,1,0-3.8,2.593,2.593,0,0,1,1.9-.79,2.593,2.593,0,0,1,1.9.79,2.684,2.684,0,0,1,0,3.8Z" transform="translate(0 -36.54)" fill="#fff"/>
    <path id="Path_150" data-name="Path 150" d="M193.587,228.4a1.734,1.734,0,1,0,1.223.508A1.667,1.667,0,0,0,193.587,228.4Z" transform="translate(-187.818 -224.365)" fill="#fff"/>
  </g>
</svg>
