<svg width="66" height="68" viewBox="0 0 66 68" fill="none" xmlns="http://www.w3.org/2000/svg">
<path d="M41.7727 67.9258H21.0537C20.1904 67.9258 19.4912 67.2266 19.4912 66.3633V57.5195C19.4912 56.6563 20.1904 55.957 21.0537 55.957H41.7727C42.636 55.957 43.3352 56.6563 43.3352 57.5195V66.3633C43.3352 67.2266 42.636 67.9258 41.7727 67.9258ZM22.6167 64.8008H40.2107V59.082H22.6167V64.8008Z" fill="black"/>
<path d="M41.7727 67.9258H21.0537C20.1904 67.9258 19.4912 67.2266 19.4912 66.3633V57.5195C19.4912 56.6563 20.1904 55.957 21.0537 55.957H41.7727C42.636 55.957 43.3352 56.6563 43.3352 57.5195V66.3633C43.3352 67.2266 42.636 67.9258 41.7727 67.9258ZM22.6167 64.8008H40.2107V59.082H22.6167V64.8008Z" fill="black"/>
<path d="M42.0823 59.0824H20.7423C11.7775 59.0824 4.48828 51.7894 4.48828 42.8284V29.6914C4.48828 28.8281 5.1875 28.1289 6.05078 28.1289H56.7778C57.6411 28.1289 58.3403 28.8281 58.3403 29.6914V42.8284C58.3403 51.7932 51.0473 59.0824 42.0863 59.0824H42.0823ZM7.61328 31.2504V42.8244C7.61328 50.0666 13.5039 55.9534 20.7423 55.9534H42.0823C49.3245 55.9534 55.2113 50.0628 55.2113 42.8244V31.2504H7.61328Z" fill="black"/>
<path d="M17.6724 31.2577C17.2037 31.2577 16.7428 31.0468 16.4341 30.6522L13.3833 26.703C10.0552 26.0038 6.91065 24.0936 4.47315 21.2655C1.55515 17.9374 0.023945 13.8241 0.285645 9.99253C0.473145 7.25033 1.55905 4.94173 3.43015 3.32063C5.28565 1.69563 7.71924 0.930031 10.4496 1.11363C14.2738 1.37144 18.1488 3.44953 21.0826 6.81673C23.7506 9.87923 25.2506 13.6292 25.2467 17.1997L32.0553 25.4575C32.6061 26.1255 32.5085 27.1098 31.8444 27.6567C31.1803 28.2036 30.196 28.1099 29.6452 27.4458L22.4655 18.7388C22.2194 18.438 22.0905 18.0552 22.11 17.6646C22.2585 14.7115 21.028 11.5044 18.7272 8.87159C16.3717 6.16459 13.1999 4.43019 10.2389 4.23099C8.35613 4.11771 6.70773 4.60208 5.48113 5.67629C4.24673 6.74659 3.53193 8.31299 3.40303 10.2075C3.19991 13.1684 4.48113 16.5356 6.82884 19.2153C8.91863 21.6372 11.7155 23.2778 14.5085 23.7348C14.8992 23.7973 15.2507 24.0082 15.4929 24.3207L18.907 28.7426C19.4344 29.4262 19.3094 30.4067 18.6258 30.934C18.3406 31.1528 18.0047 31.2622 17.6726 31.2622L17.6724 31.2577Z" fill="black"/>
<path d="M27.5782 31.2662C27.1758 31.2662 26.7774 31.1138 26.4727 30.8092C25.8633 30.1998 25.8633 29.2076 26.4727 28.5983L40.9067 14.1803L40.9574 6.83645C40.9613 6.29348 41.2426 5.79345 41.7074 5.51225L50.2465 0.305256C50.9809 -0.147874 51.9457 0.0865053 52.3949 0.824785C52.8441 1.56307 52.6098 2.52398 51.8754 2.97318L44.0785 7.72709L44.0316 14.7662C44.0473 15.1881 43.8949 15.6177 43.5746 15.9342L28.6836 30.8092C28.3789 31.1139 27.9805 31.2662 27.5782 31.2662Z" fill="black"/>
<path d="M44.6411 31.2661C44.2388 31.2661 43.8404 31.1138 43.5356 30.8052C42.9263 30.1958 42.9263 29.2036 43.5396 28.5943L49.8287 22.3209C50.1099 21.9928 50.524 21.7897 50.9849 21.7857L58.0943 21.735L62.8482 13.9381C63.2974 13.1998 64.2544 12.9654 64.9966 13.4185C65.7348 13.8678 65.9653 14.8287 65.5161 15.5669L60.3091 24.106C60.0278 24.567 59.5278 24.8521 58.9849 24.856L51.6607 24.9068L45.7466 30.8052C45.4419 31.1099 45.0435 31.2622 44.645 31.2622L44.6411 31.2661Z" fill="black"/>
<path d="M47.1797 20.2031C46.7813 20.2031 46.3789 20.0508 46.0742 19.7461C45.4648 19.1367 45.4648 18.1484 46.0742 17.5352L55.6836 7.92188C56.293 7.3125 57.2813 7.3125 57.8945 7.92188C58.5039 8.53126 58.5039 9.51958 57.8945 10.1328L48.2851 19.7461C47.9804 20.0508 47.5821 20.2031 47.1797 20.2031Z" fill="black"/>
</svg>
