<svg width="477" height="757" viewBox="0 0 477 757" fill="none" xmlns="http://www.w3.org/2000/svg">
<path d="M114.392 187.939C106.392 187.644 93.629 187.644 79.8494 191.664C79.8494 191.664 108.399 185.66 126.138 197.695C126.138 197.695 123.142 190.378 126.138 180.514C126.138 180.514 122.419 188.26 114.419 187.965L114.392 187.939Z" fill="#1E1E1E"/>
<path d="M187.973 160.973C194.635 161.643 209.565 171.373 209.565 171.373C214.301 175.689 223.345 176.868 223.345 176.868C223.345 176.868 218.796 174.724 210.582 167.326C202.368 159.928 187.946 160.973 187.946 160.973H187.973Z" fill="#1E1E1E"/>
<path d="M225.165 281.46C226.342 281.031 227.546 280.629 228.83 280.522C227.573 280.147 226.208 280.2 224.897 280.307C223.586 280.442 222.275 280.71 220.991 281.058C218.449 281.782 215.96 282.774 213.632 283.953C208.923 286.312 204.589 289.341 200.575 292.611C196.615 295.801 192.655 298.964 188.615 302.019C186.581 303.52 184.575 305.075 182.461 306.469C180.374 307.916 178.26 309.31 175.932 310.436C178.555 310.195 181.043 309.257 183.478 308.318C185.886 307.273 188.24 306.12 190.488 304.807C195.01 302.207 199.237 299.178 203.278 295.961C207.211 292.745 211.171 289.662 215.318 286.875C217.405 285.508 219.519 284.141 221.74 283.042C222.863 282.452 223.987 281.943 225.165 281.487V281.46Z" fill="#1E1E1E"/>
<path d="M203.251 333.354C205.712 335.123 208.575 336.437 211.652 336.999C214.729 337.589 218.021 337.348 220.91 336.249C223.827 335.177 226.369 333.3 228.135 330.915C225.298 331.853 222.676 332.657 220.054 332.979C217.459 333.327 214.917 333.247 212.402 332.791C209.887 332.335 207.398 331.504 204.883 330.432C202.395 329.36 199.933 328.073 197.311 326.653C198.675 329.333 200.789 331.531 203.224 333.327L203.251 333.354Z" fill="#1E1E1E"/>
<path d="M204.161 353.913C206.355 355.548 208.923 356.755 211.733 357.264C214.515 357.8 217.512 357.559 220.134 356.54C222.757 355.521 225.031 353.806 226.556 351.581C223.987 352.359 221.606 353.029 219.278 353.27C216.95 353.538 214.73 353.458 212.482 353.055C210.261 352.653 208.04 351.93 205.82 351.018C203.572 350.107 201.351 349.008 198.943 347.802C200.094 350.268 201.967 352.278 204.161 353.94V353.913Z" fill="#1E1E1E"/>
<path d="M225.7 382.675C224.121 380.262 222.596 377.689 222.328 374.821C222.328 374.66 222.302 374.472 222.195 374.338C221.847 373.856 220.616 374.338 220.134 374.392C219.278 374.526 218.395 374.714 217.539 374.821C215.211 375.089 212.857 374.66 210.636 373.936C207.586 372.918 204.776 371.309 201.833 369.996C200.709 369.487 199.318 369.889 198.863 371.122C198.087 373.239 201.967 376.644 203.251 378.037C205.258 380.235 207.479 382.219 209.806 384.068C214.489 387.768 219.706 390.823 225.084 393.396C227.091 394.361 228.804 393.986 229.499 391.735C229.767 390.85 229.687 389.885 229.392 388.947C228.67 386.669 226.77 384.31 225.673 382.675H225.7Z" fill="#1E1E1E"/>
<path d="M48.0359 42.7642C48.0359 43.1126 48.0894 43.4343 48.1429 43.6219C48.2499 43.9972 48.1429 43.5951 48.0359 42.7642Z" fill="#1E1E1E"/>
<path d="M361.837 187.939C353.837 188.233 350.118 180.487 350.118 180.487C353.115 190.351 350.118 197.669 350.118 197.669C367.858 185.633 396.407 191.638 396.407 191.638C382.627 187.617 369.864 187.617 361.864 187.912L361.837 187.939Z" fill="#1E1E1E"/>
<path d="M265.621 167.326C257.433 174.724 252.858 176.868 252.858 176.868C252.858 176.868 261.901 175.689 266.637 171.373C266.637 171.373 281.541 161.616 288.23 160.973C288.23 160.973 273.808 159.928 265.594 167.326H265.621Z" fill="#1E1E1E"/>
<path d="M254.463 283.042C256.684 284.167 258.798 285.508 260.885 286.875C265.059 289.662 268.992 292.745 272.925 295.961C276.965 299.205 281.22 302.207 285.715 304.807C287.962 306.094 290.317 307.273 292.725 308.318C295.16 309.257 297.621 310.222 300.27 310.436C297.943 309.31 295.829 307.916 293.742 306.469C291.628 305.048 289.621 303.52 287.588 302.019C283.547 298.964 279.588 295.801 275.628 292.611C271.614 289.341 267.279 286.339 262.57 283.953C260.216 282.774 257.754 281.782 255.212 281.058C253.928 280.736 252.644 280.442 251.306 280.308C249.995 280.174 248.63 280.147 247.373 280.522C248.657 280.629 249.861 281.031 251.038 281.46C252.215 281.916 253.366 282.425 254.463 283.015V283.042Z" fill="#1E1E1E"/>
<path d="M248.068 330.915C249.861 333.3 252.376 335.177 255.293 336.249C258.209 337.348 261.473 337.589 264.55 337C267.627 336.437 270.517 335.123 272.952 333.354C275.387 331.558 277.501 329.36 278.865 326.68C276.243 328.1 273.781 329.387 271.293 330.459C268.805 331.531 266.316 332.362 263.774 332.818C261.259 333.274 258.717 333.354 256.122 333.006C253.5 332.657 250.878 331.88 248.042 330.942L248.068 330.915Z" fill="#1E1E1E"/>
<path d="M263.721 353.056C261.5 353.458 259.252 353.565 256.925 353.27C254.597 353.029 252.242 352.359 249.647 351.581C251.199 353.806 253.446 355.522 256.068 356.54C258.691 357.559 261.661 357.8 264.47 357.264C267.279 356.755 269.848 355.548 272.042 353.913C274.209 352.278 276.082 350.241 277.26 347.775C274.852 348.981 272.631 350.08 270.383 350.992C268.162 351.903 265.942 352.627 263.721 353.029V353.056Z" fill="#1E1E1E"/>
<path d="M251.145 393.423C256.523 390.823 261.714 387.794 266.423 384.095C268.751 382.246 270.972 380.235 272.979 378.064C274.263 376.67 278.143 373.266 277.367 371.149C276.912 369.942 275.52 369.54 274.397 370.023C271.453 371.336 268.671 372.945 265.594 373.963C263.373 374.687 261.018 375.116 258.691 374.848C257.808 374.741 256.951 374.553 256.095 374.419C255.614 374.338 254.383 373.856 254.035 374.365C253.928 374.499 253.928 374.687 253.901 374.848C253.634 377.716 252.108 380.316 250.53 382.702C249.46 384.337 247.533 386.695 246.811 388.974C246.516 389.939 246.436 390.877 246.704 391.762C247.399 394.013 249.138 394.388 251.118 393.423H251.145Z" fill="#1E1E1E"/>
<path d="M428.06 43.6219C428.113 43.4343 428.167 43.1394 428.167 42.7642C428.033 43.5683 427.926 43.9704 428.06 43.6219Z" fill="#1E1E1E"/>
<path d="M238.115 271.113C237.392 271.113 236.777 271.784 236.697 272.695C235.225 289.448 234.556 306.362 234.797 323.222C234.984 336.651 235.279 350.214 235.947 363.617C236.162 367.557 236.402 371.47 236.83 375.411C236.911 376.215 237.473 376.804 238.115 376.804C238.757 376.804 239.319 376.215 239.399 375.411C239.827 371.47 240.068 367.557 240.282 363.617C240.817 352.6 240.897 341.529 241.245 330.486C241.593 319.844 241.513 309.176 241.112 298.535C240.79 289.904 240.282 281.272 239.533 272.668C239.453 271.784 238.837 271.087 238.115 271.087V271.113Z" fill="#1E1E1E"/>
<path d="M239.667 440.117C241.754 441.833 241.7 445.022 241.807 447.488C242.449 461.427 244.376 475.285 246.837 489.036C248.978 501.017 250.342 513.214 252.537 525.142C254.624 536.507 260.055 544.897 264.095 555.377C267.146 563.312 269.768 593.735 269.607 600.57C269.447 607.459 270.062 614.348 270.57 621.21C271.266 630.725 271.106 640.08 270.758 649.542C269.982 670.557 271.882 691.733 275.039 712.48C277.26 727.035 279.668 742.206 284.805 756.064C287.186 756.064 291.681 693.985 290.932 684.174C291.2 690.152 282.156 677.312 280.792 660.961C279.641 647.21 282.129 636.596 290.665 642.117C292.484 641.072 284.484 622.041 283.762 619.816C280.658 610.434 277.848 601.696 278.25 591.564C279.4 592.824 283.494 596.791 284.511 596.523C279.079 592.743 276.832 582.155 275.574 576.392C273.808 568.297 273.54 560.149 275.654 552.188C275.788 548.435 276.056 544.709 276.617 541.01C274.718 544.307 273.139 550.07 272.765 551.169C268.323 547.282 271.132 539.375 268.724 533.639C269.045 533.826 265.192 475.58 272.256 461.775C272.256 462.499 272.256 463.196 272.31 463.92C272.363 464.643 272.497 465.287 272.711 465.877C274.129 480.941 282.932 520.96 287.347 519.218C285.474 519.968 284.457 495.442 284.243 479.252C284.083 478.502 283.922 477.778 283.762 477.027C282.852 472.47 282.049 467.726 281.969 463.062C281.889 458.746 282.557 454.35 284.537 450.491C285.287 449.016 286.277 447.569 287.695 446.711C290.103 445.21 292.698 446.229 294.651 447.998C311.374 463.035 315.12 490.296 313.756 511.364C313.328 518.092 312.257 524.793 310.545 531.334C309.689 534.631 308.672 537.874 307.521 541.064C307.2 541.948 303.454 549.936 303.722 550.177C301.876 548.355 297.728 530.422 295.561 531.334C296.284 531.039 298.879 546.023 300.297 555.94C300.19 556.45 300.056 556.959 299.949 557.468C300.11 564.009 298.692 570.442 294.491 575.186C294.223 575.803 293.929 576.419 293.635 577.036C293.1 578.135 294.651 579.287 295.561 578.483C300.538 574.06 304.391 568.297 306.157 561.891C307.388 565 308.913 568.565 310.117 568.11C308.511 568.726 313.916 572.211 311.455 571.97C316.378 579.1 315.709 594.191 310.625 601.374C306.558 607.164 292.431 611.426 290.183 600.945C290.263 601.294 290.29 601.83 290.37 602.366C290.237 601.937 290.103 601.508 289.996 601.079C290.745 614.589 299.28 615.768 307.254 622.336C315.441 629.09 317.475 647.907 314.853 664.633C313.568 672.836 310.919 680.743 309.02 688.811C305.086 705.457 303.187 737.381 303.909 754.51C305.996 754.322 316.699 699.024 318.92 691.867C324.833 672.782 327.214 646.755 325.288 626.651C323.977 612.82 318.063 599.873 320.873 585.908C321.247 584.085 321.542 582.236 321.809 580.386C325.903 553.608 327.535 526.214 328.525 499.168C328.98 486.597 329.703 473.596 328.204 461.078C325.475 438.455 321.328 416.127 319.535 393.37C317.823 371.819 317.475 350.161 317.903 328.529C318.492 308.667 320.097 288.912 323.656 276.769C330.586 248.517 351.616 232.944 352.66 229.727C387.952 240.234 451.204 207.774 459.873 202.44C463.94 199.92 467.178 197.937 469.319 197.749C470.924 197.588 472.155 196.918 473.011 195.712C475.285 192.495 474.081 186.625 473.84 185.606C478.71 175.957 474.349 140.628 471.004 121.222C467.258 99.4562 460.569 69.5957 450.241 50.8592C450.054 50.5108 449.92 50.2695 449.813 50.1087C449.786 50.0283 449.733 50.0015 449.679 49.9747C449.385 48.0715 449.599 46.1148 450 43.3271C450.161 42.1477 450.375 40.8343 450.535 39.3332C450.883 36.3847 450.83 33.3289 450.669 30.3536C450.509 27.7804 449.786 25.2875 449.144 22.7679C448.127 18.774 447.084 14.7801 445.157 11.1079C445.157 11.1079 445.157 11.081 445.157 11.0542C445.157 11.0542 443.231 8.21294 443.177 7.9717C442.829 7.35519 442.455 6.73868 442 6.22939C441.732 5.82732 441.438 5.45206 441.037 5.18401C440.528 4.80874 439.94 4.59431 439.324 4.46028C437.719 4.11182 435.578 4.13863 434.187 5.1304C433.358 2.02105 431.19 0.412771 427.525 0.198334C424.421 0.0107008 423.056 1.53857 422.468 2.61076C421.665 1.53857 419.846 -0.150127 416.287 0.0107008C413.023 0.144724 411.578 2.12827 410.936 3.52212C410.561 2.852 410.026 2.23549 409.33 1.7262C407.966 0.707623 406.173 0.225139 404.594 0.466381C403.23 0.680819 401.972 1.19011 401.169 2.34271C398.735 5.96135 400.206 10.5718 400.313 14.5925C400.367 17.5946 400.286 20.6235 400.661 23.6256C401.009 26.1453 401.919 28.5845 402.588 31.0237C403.337 33.6774 404.006 36.3579 404.808 38.9847C405.531 41.3704 406.467 43.756 408.153 45.6323C409.303 46.9189 410.802 47.8571 412.086 49.0097C414.173 50.8592 416.18 52.4675 418.668 53.6737C420.675 54.6387 421.478 56.7027 422.468 58.579C425.518 64.4492 427.926 70.6947 429.638 77.101C431.351 83.5074 432.368 90.1013 432.662 96.7221C432.956 103.316 432.528 109.937 431.378 116.45C428.301 133.659 420.22 150.76 423.645 167.915C412.086 160.705 397.718 158.212 384.42 161.107C382.921 161.429 381.37 161.831 379.898 161.429C378.587 161.08 377.517 160.169 376.446 159.311C362.426 148.134 342.144 145.453 325.689 152.61C324.324 153.2 322.96 153.87 321.462 153.95C319.562 154.057 317.742 153.226 315.95 152.556C310.518 150.573 304.471 150.331 298.906 151.833C297.488 152.208 296.016 152.717 294.598 152.369C292.136 151.779 290.932 149.045 289.755 146.793C287.16 141.834 282.905 137.733 277.848 135.348C276.591 134.758 275.253 134.249 274.236 133.257C272.952 132.024 272.39 130.201 272.149 128.432C271.159 120.9 275.199 113.77 278.624 107.015C285.073 94.2561 284.115 81.5911 283.457 66.5132C281.615 81.5911 283.44 95.0066 275.039 107.203C267.975 117.469 257.701 126.127 245.821 129.29C243.653 129.88 241.433 130.255 239.158 130.442C238.784 130.416 238.382 130.362 238.008 130.308C237.633 130.362 237.232 130.416 236.857 130.442C234.583 130.255 232.362 129.88 230.195 129.29C218.315 126.127 208.04 117.469 200.977 107.203C192.602 95.0066 193.615 81.0911 191.558 66.5132C190.615 80.5911 190.943 94.2292 197.391 107.015C200.816 113.77 204.829 120.9 203.866 128.432C203.625 130.201 203.064 132.024 201.779 133.257C200.762 134.222 199.425 134.731 198.167 135.348C193.11 137.733 188.856 141.834 186.26 146.793C185.083 149.045 183.906 151.779 181.417 152.369C179.999 152.717 178.528 152.208 177.11 151.833C171.544 150.331 165.497 150.573 160.066 152.556C158.273 153.2 156.454 154.057 154.554 153.95C153.082 153.87 151.691 153.2 150.326 152.61C133.898 145.453 113.616 148.134 99.569 159.311C98.4987 160.169 97.4285 161.08 96.1174 161.429C94.6458 161.804 93.0939 161.429 91.5955 161.107C78.2975 158.212 63.9025 160.705 52.3704 167.915C55.7952 150.76 47.7147 133.659 44.6377 116.45C43.4872 109.964 43.0591 103.316 43.3534 96.7221C43.6477 90.1013 44.6645 83.5074 46.3769 77.101C48.0893 70.6947 50.4706 64.476 53.5476 58.579C54.5376 56.6759 55.3403 54.6387 57.3471 53.6737C59.8622 52.4675 61.8689 50.8592 63.9292 49.0097C65.2135 47.8571 66.6851 46.9457 67.8624 45.6323C69.5481 43.756 70.4846 41.3704 71.207 38.9847C72.0097 36.3579 72.6786 33.6774 73.4278 31.0237C74.0967 28.5845 75.0064 26.1453 75.3543 23.6256C75.7556 20.6235 75.6486 17.5946 75.7021 14.5925C75.7824 10.5718 77.2808 5.96135 74.8459 2.34271C74.0432 1.1633 72.7856 0.654014 71.4211 0.466381C69.8157 0.225139 68.0497 0.707623 66.6851 1.7262C65.9895 2.23549 65.4543 2.852 65.0797 3.52212C64.4643 2.10147 62.9927 0.144724 59.7284 0.0107008C56.1965 -0.150127 54.3503 1.53857 53.5476 2.61076C52.959 1.56537 51.5944 0.0107008 48.4906 0.198334C44.825 0.412771 42.6577 2.02105 41.8282 5.1304C40.4637 4.13863 38.2964 4.11182 36.691 4.46028C36.1023 4.59431 35.4869 4.80874 34.9786 5.18401C34.5772 5.47886 34.2829 5.85413 34.0153 6.22939C33.5872 6.73868 33.1859 7.32839 32.838 7.9717C32.7845 8.21294 30.858 11.0542 30.858 11.0542C30.858 11.0542 30.858 11.081 30.858 11.1079C28.9316 14.7533 27.8881 18.774 26.8713 22.7679C26.2559 25.2607 25.5067 27.7536 25.3462 30.3536C25.1589 33.3289 25.1321 36.3579 25.48 39.3332C25.6405 40.8611 25.8546 42.1745 26.0151 43.3271C26.4164 46.1148 26.6573 48.0447 26.3362 49.9747C26.2827 50.0283 26.2291 50.0551 26.2024 50.1087C26.1221 50.2695 25.9883 50.5108 25.7743 50.8592C15.4462 69.5689 8.78384 99.4562 5.01116 121.222C1.66658 140.628 -2.69475 175.957 2.17496 185.606C1.9609 186.598 0.730101 192.495 3.00441 195.712C3.86062 196.918 5.09143 197.588 6.69682 197.749C8.83735 197.963 12.0749 199.947 16.1419 202.44C24.811 207.774 88.0904 240.234 123.356 229.727C124.399 232.944 145.43 248.517 152.36 276.769C155.945 288.885 157.524 308.667 158.112 328.529C158.541 350.161 158.193 371.792 156.48 393.37C154.688 416.127 150.514 438.455 147.811 461.078C146.313 473.596 147.035 486.597 147.49 499.168C148.48 526.214 150.112 553.608 154.206 580.386C154.5 582.236 154.795 584.085 155.142 585.908C157.952 599.846 152.065 612.793 150.728 626.651C148.801 646.781 151.182 672.782 157.096 691.867C159.316 699.024 170.046 754.322 172.106 754.51C172.829 737.381 170.929 705.457 166.996 688.811C165.096 680.743 162.447 672.836 161.163 664.633C158.541 647.907 160.574 629.09 168.762 622.336C176.735 615.768 185.27 614.589 186.02 601.079C185.913 601.508 185.779 601.937 185.645 602.366C185.725 601.803 185.779 601.294 185.832 600.945C183.585 611.453 169.457 607.164 165.39 601.374C160.307 594.191 159.638 579.1 164.561 571.97C162.072 572.211 167.477 568.726 165.899 568.11C167.103 568.565 168.628 565 169.859 561.891C171.625 568.297 175.478 574.06 180.454 578.483C181.364 579.287 182.943 578.135 182.381 577.036C182.086 576.419 181.792 575.803 181.525 575.186C177.35 570.442 175.906 564.035 176.066 557.468C175.959 556.959 175.825 556.45 175.718 555.94C177.136 546.023 179.705 531.012 180.454 531.334C178.287 530.422 174.14 548.355 172.293 550.177C172.534 549.936 168.815 541.948 168.494 541.064C167.317 537.874 166.327 534.631 165.471 531.334C163.785 524.793 162.688 518.119 162.26 511.364C160.922 490.269 164.668 463.035 181.364 447.998C183.317 446.255 185.886 445.237 188.321 446.711C189.739 447.596 190.729 449.016 191.478 450.491C193.431 454.324 194.1 458.746 194.047 463.062C193.966 467.726 193.19 472.47 192.254 477.027C192.093 477.778 191.933 478.502 191.772 479.252C191.558 495.442 190.541 519.968 188.669 519.218C193.057 520.96 201.86 480.914 203.304 465.877C203.518 465.287 203.652 464.617 203.706 463.92C203.759 463.196 203.759 462.499 203.759 461.775C210.823 475.553 206.97 533.826 207.291 533.639C204.883 539.375 207.692 547.282 203.251 551.169C202.876 550.07 201.298 544.307 199.398 541.01C199.96 544.709 200.227 548.435 200.361 552.188C202.475 560.149 202.207 568.297 200.441 576.392C199.184 582.182 196.936 592.77 191.505 596.523C192.548 596.818 196.642 592.824 197.766 591.564C198.194 601.696 195.358 610.434 192.254 619.816C191.531 622.014 183.531 641.072 185.351 642.117C193.886 636.596 196.374 647.21 195.224 660.961C193.859 677.312 184.816 690.152 185.083 684.174C184.334 693.985 188.829 756.064 191.21 756.064C196.374 742.206 198.756 727.008 200.977 712.48C204.134 691.733 206.034 670.557 205.258 649.542C204.91 640.053 204.749 630.725 205.445 621.21C205.953 614.348 206.542 607.459 206.408 600.57C206.274 593.735 208.87 563.312 211.92 555.377C215.96 544.897 221.392 536.507 223.479 525.142C225.673 513.214 227.037 501.017 229.178 489.036C231.64 475.312 233.566 461.454 234.208 447.488C234.315 445.049 234.235 441.833 236.349 440.117H239.453H239.667ZM434.776 7.4088C435.017 6.92631 435.471 6.39022 435.873 5.96135C436.916 5.61288 438.254 5.7201 439.191 5.96135C439.645 6.06856 440.1 6.22939 440.448 6.52424C440.85 6.8459 441.09 7.32839 441.358 7.75726C441.679 8.26655 442 8.80264 442.321 9.31193C442.562 9.74081 443.044 10.2769 443.07 10.7862C443.07 10.8398 443.07 10.8934 443.124 10.9738C443.151 12.8234 441.866 14.4316 440.93 15.9595C439.967 17.5678 439.057 19.2029 438.094 20.8112C437.264 22.205 436.14 23.6256 434.348 23.2504C433.09 23.0091 432.207 22.071 431.645 20.9988C431.458 19.3101 432.154 16.308 432.421 15.2358C433.251 12.0192 434.267 8.45418 434.776 7.382V7.4088ZM423.03 8.26655C423.083 7.30158 423.19 6.30981 423.458 5.37164C423.672 4.5675 423.993 3.65614 424.662 3.09324C425.331 2.53034 426.294 2.42312 427.15 2.36952C428.06 2.31591 429.05 2.23549 429.879 2.66437C430.628 3.03963 431.404 3.65614 431.94 4.29945C432.287 4.72833 432.528 5.23762 432.715 5.77371C432.715 5.77371 432.715 5.77371 432.715 5.80052C432.93 6.47064 432.956 7.08714 432.903 7.81087C432.903 8.05211 432.823 8.32016 432.769 8.61501C432.528 9.39235 432.261 10.2769 432.047 11.2151C431.672 12.7697 431.244 15.0481 430.682 17.0853C430.12 19.0957 429.478 20.8648 428.702 21.4009C427.605 21.8029 426.294 21.5349 425.464 21.2936C425.491 21.24 425.545 21.1864 425.571 21.1596C425.678 20.9988 425.786 20.838 425.866 20.6503C426.026 20.2751 426.107 19.8998 426.214 19.5245C426.401 18.7472 426.428 17.9699 426.187 17.1925C425.946 16.4688 425.518 15.8255 424.903 15.343C424.367 14.9141 423.672 14.6729 423.163 14.1904C423.163 12.2336 422.976 10.2769 423.056 8.32016L423.03 8.26655ZM412.782 4.67472C413.13 4.03141 413.558 3.46851 414.12 3.01283C415.324 2.04786 416.983 1.75301 418.481 2.02105C419.177 2.15508 419.979 2.34271 420.514 2.8252C420.916 3.20046 421.183 3.70975 421.397 4.21904L421.504 13.7347C419.926 13.0646 418.213 12.7965 416.528 12.4749C415.324 12.2336 414.12 11.9924 412.916 11.778C412.755 10.1697 412.568 8.5614 412.407 6.95312C412.327 6.14898 412.354 5.42525 412.755 4.72833L412.782 4.67472ZM401.999 12.5821C401.999 12.5821 401.838 12.3141 401.758 12.18C401.758 12.1264 401.758 12.046 401.758 11.9924C401.758 11.5367 401.705 11.081 401.705 10.6254C401.705 9.714 401.705 8.80264 401.758 7.89128C401.838 6.30981 401.758 4.37987 403.069 3.28088C405.611 1.1365 409.25 2.90561 410.374 5.66649C410.374 5.6933 410.4 5.7201 410.427 5.74691C410.641 7.62324 410.909 10.3305 410.909 11.4027C408.019 11.081 404.568 11.0542 401.999 12.5553V12.5821ZM65.8289 5.77371C65.8289 5.77371 65.8557 5.7201 65.8824 5.6933C67.0062 2.93241 70.6451 1.1365 73.187 3.30768C74.4981 4.40667 74.4178 6.36342 74.4981 7.91809C74.5516 8.82945 74.5516 9.74081 74.5516 10.6522C74.5516 11.1078 74.5516 11.5635 74.4981 12.0192C74.4981 12.0728 74.4981 12.1264 74.4981 12.2068C74.4178 12.3409 74.3643 12.5017 74.2573 12.6089C71.7154 11.1347 68.237 11.1347 65.3473 11.4563C65.3473 10.3841 65.6416 7.67685 65.8289 5.80052V5.77371ZM54.832 4.21904C55.046 3.70975 55.2868 3.20046 55.7149 2.8252C56.2501 2.34271 57.0528 2.15508 57.7484 2.02105C59.2468 1.75301 60.9057 2.02105 62.1098 3.01283C62.6716 3.46851 63.0998 4.05821 63.4476 4.67472C63.8489 5.39845 63.8757 6.09537 63.7954 6.89951C63.6349 8.50779 63.4743 10.1161 63.287 11.7244C62.083 11.9388 60.879 12.18 59.6749 12.4213C57.9892 12.7697 56.2768 13.0378 54.6982 13.6811L54.8052 4.16543L54.832 4.21904ZM43.5139 5.80052C43.5139 5.80052 43.5139 5.80052 43.5139 5.77371C43.7012 5.23762 43.9153 4.72833 44.2899 4.29945C44.825 3.65614 45.6009 3.03963 46.3501 2.66437C47.2063 2.23549 48.1696 2.31591 49.0793 2.36952C49.9355 2.42312 50.872 2.53034 51.5676 3.09324C52.2366 3.65614 52.5309 4.5675 52.7717 5.37164C53.0393 6.30981 53.1463 7.30158 53.1998 8.26655C53.2801 10.2233 53.1195 12.18 53.0928 14.1368C52.5844 14.6193 51.9155 14.8605 51.3536 15.2894C50.765 15.7719 50.3101 16.4152 50.0693 17.1389C49.8017 17.9162 49.8552 18.6936 50.0425 19.4709C50.1228 19.8462 50.2298 20.2483 50.3904 20.5967C50.4706 20.7843 50.5509 20.9452 50.6847 21.106C50.6847 21.1328 50.7382 21.1864 50.7917 21.24C49.9355 21.5081 48.6512 21.7493 47.5542 21.3472C46.7782 20.8112 46.1361 19.0688 45.5742 17.0317C45.0123 15.0213 44.5842 12.7429 44.2096 11.1615C43.9955 10.2233 43.728 9.33874 43.4872 8.5614C43.4336 8.29335 43.3801 8.02531 43.3534 7.75726C43.2999 7.03353 43.3266 6.41703 43.5407 5.74691L43.5139 5.80052ZM33.1591 10.813C33.1591 10.3037 33.6407 9.76761 33.9083 9.33874C34.2294 8.80264 34.5504 8.29335 34.8715 7.78407C35.1391 7.35519 35.4067 6.87271 35.7813 6.55105C36.1291 6.2562 36.584 6.09537 37.0388 5.98815C37.9753 5.74691 39.3131 5.63969 40.3566 5.98815C40.758 6.41703 41.2128 6.92632 41.4537 7.4356C41.9888 8.50779 43.0055 12.0728 43.8082 15.2894C44.0758 16.3616 44.7715 19.3637 44.5842 21.0524C44.0223 22.1514 43.1393 23.0627 41.8818 23.304C40.0891 23.6525 38.9385 22.2318 38.1358 20.8648C37.1726 19.2565 36.2629 17.5946 35.2996 16.0131C34.3899 14.4852 33.0788 12.877 33.1056 11.0274C33.1056 10.9738 33.1324 10.9202 33.1591 10.8398V10.813ZM190.863 427.707C190.702 428.913 190.301 430.065 189.605 431.03C187.545 433.899 183.612 435.132 180.695 436.901C177.457 438.857 174.488 441.216 171.839 443.923C168.387 447.435 165.471 451.509 163.303 455.932C161.002 460.569 159.638 465.635 157.524 470.38C157.363 470.728 157.203 471.077 156.908 471.318C156.159 471.908 155.49 471.157 155.464 470.407C155.169 463.303 156.32 455.905 157.122 448.856C158.674 434.944 162.233 421.515 164.266 407.71C164.588 405.432 164.935 403.154 165.283 400.848C165.738 398.007 169.377 401.331 170.554 401.947C172.588 403.046 174.621 404.172 176.575 405.432C183.05 409.587 188.24 415.591 190.461 423.069C190.889 424.544 191.077 426.152 190.889 427.68L190.863 427.707ZM319.107 448.856C319.91 455.905 321.06 463.303 320.766 470.407C320.739 471.157 320.07 471.881 319.321 471.318C319.027 471.077 318.866 470.728 318.706 470.38C316.592 465.635 315.227 460.569 312.926 455.932C310.732 451.509 307.842 447.435 304.391 443.923C301.742 441.243 298.772 438.857 295.534 436.901C292.618 435.132 288.658 433.872 286.624 431.03C285.929 430.039 285.527 428.886 285.367 427.707C285.18 426.179 285.367 424.57 285.795 423.096C287.989 415.618 293.207 409.613 299.682 405.459C301.635 404.199 303.668 403.073 305.702 401.974C306.879 401.331 310.518 398.034 310.973 400.875C311.321 403.154 311.669 405.432 311.99 407.737C314.023 421.542 317.555 434.971 319.134 448.882L319.107 448.856ZM467.606 142.156C466.349 176.573 463.057 181.773 463.057 181.773C473.038 187.027 462.415 197.669 440.769 204.343C420.461 210.615 407.859 199.116 407.243 198.553C416.876 208.873 409.785 214.716 386.56 222.436C363.336 230.183 352.365 209.516 352.365 209.516C351.911 218.228 347.576 226.591 342.171 233.801C331.656 237.849 332.164 219.943 333.047 210.16C333.93 200.322 343.937 197.669 343.937 197.669C343.937 197.669 339.469 197.937 335.883 194.881C331.683 191.289 327.589 187.536 324.833 184.99C320.097 177.538 310.973 167.594 297.407 171.4C297.407 171.4 324.324 173.008 327.937 204.531C327.375 218.469 325.422 249.482 319 256.103C315.95 259.239 312.445 262.214 309.314 264.707C306.906 265.565 304.418 266.262 301.876 266.744C294.491 268.272 286.758 268.272 279.186 267.254C275.44 266.718 271.694 265.833 268.082 264.68C264.47 263.501 260.992 261.973 257.754 260.043C251.252 256.29 245.821 250.635 243.225 243.585C244.028 247.204 245.66 250.715 247.961 253.798C250.262 256.907 253.205 259.561 256.416 261.866C262.945 266.369 270.651 269.237 278.544 270.711C282.504 271.462 286.544 271.864 290.611 271.891C293.849 271.918 297.086 271.73 300.297 271.301C306.344 272.722 309.903 275.509 311.776 279.048C309.769 279.905 307.789 280.736 305.809 281.406C303.187 282.318 300.565 283.015 297.889 283.39C295.24 283.792 292.591 283.873 289.889 283.604C287.16 283.336 284.404 282.693 281.46 281.943C283.494 284.221 286.17 285.91 289.166 286.901C292.163 287.893 295.401 288.134 298.531 287.652C301.662 287.196 304.632 286.071 307.254 284.435C309.127 283.256 310.866 281.862 312.311 280.173C316.512 290.145 309.18 305.021 307.147 311.91C304.311 321.614 274.022 316.574 258.637 314.859C258.637 314.859 275.708 323.946 302.785 326.251C302.785 326.251 312.391 323.946 308.565 344.666C308.565 344.666 303.294 354.61 277.153 353.377C277.153 353.377 306.986 357.559 311.187 366.565C314.237 373.132 319.455 390.073 289.755 398.624C285.233 399.937 281.781 400.929 279.106 401.813C266.37 404.655 253.473 406.879 240.683 409.345H235.519C222.73 406.879 209.833 404.655 197.097 401.813C194.421 400.929 190.97 399.91 186.448 398.624C156.748 390.046 161.965 373.132 165.016 366.565C169.243 357.532 199.05 353.377 199.05 353.377C172.882 354.61 167.638 344.666 167.638 344.666C163.812 323.946 173.417 326.251 173.417 326.251C200.495 323.946 217.566 314.859 217.566 314.859C202.181 316.574 171.892 321.614 169.056 311.91C167.022 305.021 159.718 290.145 163.892 280.173C165.337 281.835 167.076 283.256 168.949 284.435C171.571 286.044 174.568 287.196 177.672 287.652C180.802 288.134 184.04 287.893 187.036 286.901C190.006 285.936 192.709 284.248 194.742 281.943C191.799 282.72 189.043 283.363 186.314 283.604C183.611 283.873 180.963 283.792 178.314 283.39C175.665 283.015 173.043 282.318 170.394 281.406C168.414 280.736 166.434 279.905 164.427 279.048C166.327 275.509 169.859 272.722 175.906 271.301C179.116 271.73 182.354 271.918 185.591 271.891C189.632 271.864 193.672 271.462 197.659 270.711C205.579 269.237 213.258 266.369 219.786 261.866C223.024 259.587 225.967 256.907 228.242 253.798C230.543 250.688 232.175 247.204 232.977 243.585C230.382 250.635 224.95 256.264 218.449 260.043C215.211 261.973 211.733 263.501 208.121 264.68C204.508 265.86 200.762 266.718 197.017 267.254C189.444 268.299 181.712 268.272 174.327 266.744C171.785 266.262 169.297 265.565 166.889 264.707C163.731 262.214 160.253 259.239 157.203 256.103C150.781 249.482 148.828 218.496 148.266 204.531C151.878 172.981 178.795 171.4 178.795 171.4C165.23 167.594 156.106 177.538 151.37 184.99C148.614 187.563 144.52 191.316 140.319 194.881C136.734 197.937 132.266 197.669 132.266 197.669C132.266 197.669 142.273 200.322 143.156 210.16C144.038 219.943 144.574 237.849 134.032 233.801C128.627 226.591 124.292 218.228 123.837 209.516C123.837 209.516 112.867 230.21 89.6423 222.436C66.4443 214.69 59.3271 208.873 68.9594 198.553C68.344 199.116 55.7417 210.615 35.4334 204.343C13.7873 197.669 3.16495 187.027 13.1452 181.773C13.1452 181.773 9.8541 176.547 8.59654 142.156C7.57979 114.386 15.2857 84.6064 21.0651 66.5936C22.2424 64.342 23.2056 62.01 24.2759 59.7316C24.8913 58.4182 25.5335 57.1047 26.1756 55.8181C26.8981 54.9604 27.46 54.2366 27.4332 53.9954C27.3529 53.3521 27.567 51.9046 29.3864 52.8964C31.1791 53.8882 41.7747 55.5501 41.7747 55.5501C41.7747 55.5501 36.4234 53.7809 34.711 53.1376C28.9583 51.0201 27.4332 45.3911 27.1389 44.0508C27.1121 43.7828 27.0586 43.5415 27.0318 43.2735C26.8713 42.0941 26.684 40.7807 26.4967 39.3064C26.1756 36.7331 26.1489 34.1063 26.4164 31.533C26.5502 30.2464 26.8713 29.0134 27.0318 27.7536C27.1924 26.601 27.3797 25.4216 27.7008 24.2958C28.2091 22.5535 28.8245 20.8112 29.5202 19.1493C30.1891 17.5142 30.751 15.8523 31.4199 14.2172C31.5805 13.7615 32.0353 13.6811 32.3832 13.8151C32.624 14.3512 32.9183 14.8605 33.2394 15.3698C33.8815 17.4606 34.5504 19.5513 35.7545 21.4009C36.3967 22.3926 37.2261 23.5184 38.2696 24.1617C39.3666 24.8319 40.9453 25.0195 42.2028 24.9391C43.1393 24.8855 44.6912 24.5906 45.1728 23.6525C45.3601 23.304 45.3869 22.8751 45.6277 22.5535C45.6812 22.473 45.7615 22.4194 45.815 22.3658C46.4571 22.9287 47.3134 23.2236 48.1963 23.2504C49.1596 23.304 50.1763 23.1432 51.1395 22.9287C51.1395 22.9287 51.1931 22.9287 51.2198 22.9287C51.3001 22.9287 51.3536 22.9019 51.4606 22.9287C51.7014 22.9019 51.8887 23.0359 51.9958 23.1968C53.0393 24.0813 52.1563 25.8772 51.6747 26.8422C50.7917 28.6649 49.9087 30.4877 49.0258 32.3104C48.1963 33.9991 47.5274 35.6342 47.5006 37.5373C47.5006 39.3064 47.6879 41.0487 47.9823 42.791C47.7682 39.3064 48.4906 35.7146 50.1228 32.6588C50.2566 32.4176 50.3904 32.1763 50.5241 31.9351C50.6312 31.7207 50.7382 31.533 50.872 31.3186C51.8352 29.6031 52.7182 27.8876 53.6547 26.1721C54.0828 25.368 54.4574 24.537 55.0728 23.8669C55.1798 23.7597 55.2868 23.6793 55.3938 23.5988C54.3236 23.1164 53.4674 22.473 52.7985 21.5617C51.2198 19.2833 51.5141 17.4874 53.0393 16.4956C53.2801 16.3616 53.6279 16.2007 54.0828 16.0399C53.0393 16.7368 52.8252 17.8626 53.0125 19.7926C53.2266 21.937 55.929 21.9906 57.5076 21.9101C59.0863 21.8297 59.7819 21.3741 60.4776 19.6049C61.1733 17.8358 60.3973 15.5574 60.3973 15.5574C60.1833 15.1286 58.0963 15.1286 56.3571 15.3698C58.9257 14.6997 62.19 14.0564 63.9292 13.6811C66.6851 13.0646 70.4578 12.0996 72.6251 15.5306C73.2405 16.4956 73.187 17.809 73.187 18.908C73.187 19.9534 73.2405 20.9452 73.3743 21.9638C73.401 23.6256 73.1335 25.2607 72.8392 26.9226C72.8124 27.0298 72.7589 27.1371 72.7321 27.2175C72.3843 28.3969 72.0632 29.5763 71.6619 30.7557L69.0665 38.7167C68.5849 40.191 68.1032 41.6652 67.3273 43.0055C65.6951 45.82 63.0195 47.5891 60.3706 49.3582C59.0863 50.2159 58.0428 50.9396 56.5176 51.3953C55.5811 51.6634 52.3168 52.7356 51.4606 52.1459C52.3971 52.7624 53.3336 53.3789 54.2701 53.9954C53.1195 54.7191 51.4874 54.5047 50.5509 53.5129C50.872 55.2552 51.1663 56.9975 51.4874 58.7398C46.4571 61.5543 39.7947 61.1522 35.1659 57.7212C36.7445 61.6615 41.6945 63.5647 43.0323 67.5854C43.5674 69.1668 43.4604 70.9092 43.2731 72.571C42.1761 82.7032 38.6175 92.5942 32.9986 101.091C35.7813 99.483 38.0021 96.9365 39.1793 93.9612C38.6977 108.543 37.681 124.465 27.8345 135.187C32.9451 134.034 37.3599 130.174 39.1793 125.242C39.5539 135.964 46.4304 145.962 45.3066 156.631C44.5842 163.305 40.5172 169.524 34.711 172.821C37.788 172.419 40.865 172.017 43.9153 171.614C45.2263 171.454 46.8317 171.4 47.5542 172.499C48.0358 173.223 47.9288 174.188 47.7682 175.045C47.2331 177.967 46.2698 180.835 44.9588 183.489C50.765 174.295 59.7017 166.575 70.3775 164.458C81.0534 162.34 93.308 166.95 98.1777 176.681C103.047 165.905 113.402 158.024 124.881 155.183C136.359 152.342 148.748 154.299 159.343 159.499C166.514 152.771 178.207 151.484 186.662 156.497C188.347 149.286 191.184 140.789 198.354 138.966C204.937 137.278 211.599 142.37 218.342 141.54C210.341 136.393 204.856 127.521 203.84 118.059C211.251 128.432 223.934 134.785 236.67 134.57C236.723 134.57 236.804 134.57 236.857 134.57C236.911 134.57 236.991 134.57 237.044 134.57C237.366 134.57 237.687 134.57 238.008 134.57C238.329 134.57 238.65 134.57 238.971 134.57C239.024 134.57 239.105 134.57 239.158 134.57C239.212 134.57 239.292 134.57 239.346 134.57C252.082 134.785 264.764 128.432 272.176 118.059C271.159 127.521 265.674 136.393 257.674 141.54C264.416 142.37 271.079 137.278 277.661 138.966C284.832 140.789 287.668 149.286 289.354 156.497C297.809 151.484 309.501 152.771 316.672 159.499C327.268 154.272 339.656 152.342 351.135 155.183C362.613 158.024 372.968 165.878 377.838 176.681C382.707 166.95 394.962 162.34 405.638 164.458C416.314 166.575 425.224 174.295 431.057 183.489C429.719 180.835 428.782 177.967 428.247 175.045C428.087 174.188 427.98 173.223 428.461 172.499C429.21 171.4 430.789 171.454 432.1 171.614C435.177 172.017 438.254 172.419 441.304 172.821C435.498 169.497 431.404 163.278 430.709 156.631C429.558 145.962 436.461 135.964 436.836 125.242C438.655 130.148 443.07 134.034 448.181 135.187C438.334 124.465 437.318 108.543 436.836 93.9612C438.04 96.9365 440.261 99.483 443.017 101.091C437.371 92.5942 433.812 82.73 432.742 72.571C432.555 70.9092 432.448 69.1668 432.983 67.5854C434.321 63.5379 439.271 61.6615 440.85 57.7212C436.194 61.1254 429.558 61.5543 424.528 58.7398C424.849 56.9975 425.143 55.2552 425.464 53.5129C424.528 54.5047 422.896 54.7191 421.745 53.9954C422.682 53.3789 423.618 52.7624 424.555 52.1459C423.672 52.7088 420.434 51.6634 419.498 51.3953C417.973 50.9396 416.929 50.2159 415.645 49.3582C413.023 47.5891 410.32 45.82 408.688 43.0055C407.912 41.6652 407.431 40.191 406.949 38.7167L404.353 30.7557C403.979 29.5763 403.631 28.3969 403.283 27.2175C403.256 27.1103 403.203 27.003 403.176 26.9226C402.882 25.2875 402.614 23.6525 402.641 21.9638C402.802 20.9452 402.828 19.9266 402.828 18.908C402.828 17.809 402.775 16.4956 403.39 15.5306C405.558 12.1264 409.357 13.0646 412.086 13.6811C413.825 14.0832 417.09 14.7265 419.658 15.3698C417.919 15.1286 415.805 15.1286 415.618 15.5574C415.618 15.5574 414.842 17.8358 415.538 19.6049C416.26 21.4009 416.929 21.8565 418.508 21.9101C420.086 21.9906 422.789 21.9101 423.003 19.7926C423.217 17.8358 422.976 16.7368 421.933 16.0399C422.387 16.2007 422.735 16.3616 422.976 16.4956C424.501 17.4874 424.796 19.3101 423.217 21.5617C422.575 22.473 421.692 23.1164 420.622 23.5988C420.729 23.7061 420.862 23.7597 420.943 23.8669C421.531 24.537 421.933 25.368 422.361 26.1721C423.297 27.8876 424.18 29.6299 425.143 31.3186C425.25 31.533 425.357 31.7207 425.491 31.9351C425.625 32.1763 425.759 32.4176 425.893 32.6588C427.525 35.7146 428.247 39.3064 428.033 42.791C428.327 41.0487 428.515 39.3064 428.515 37.5373C428.515 35.6342 427.819 33.9991 426.99 32.3104C426.107 30.4877 425.224 28.6649 424.341 26.8422C423.886 25.8772 422.976 24.0813 424.02 23.1968C424.127 23.0091 424.314 22.9019 424.555 22.9287C424.662 22.9287 424.715 22.9287 424.796 22.9287C424.796 22.9287 424.849 22.9287 424.876 22.9287C425.839 23.1432 426.856 23.304 427.819 23.2504C428.702 23.1968 429.558 22.9287 430.2 22.3658C430.254 22.4194 430.334 22.473 430.388 22.5535C430.628 22.8751 430.655 23.304 430.843 23.6525C431.351 24.5906 432.876 24.8855 433.812 24.9391C435.097 24.9927 436.649 24.8319 437.746 24.1617C438.789 23.5452 439.619 22.4194 440.261 21.4009C441.465 19.5513 442.134 17.4606 442.776 15.3698C443.097 14.8605 443.391 14.3512 443.632 13.8151C443.98 13.6811 444.435 13.7615 444.595 14.2172C445.264 15.8523 445.799 17.5142 446.495 19.1493C447.191 20.8112 447.806 22.5535 448.315 24.2958C448.636 25.4216 448.85 26.601 448.983 27.7536C449.144 29.0134 449.465 30.2464 449.599 31.533C449.867 34.1063 449.84 36.7331 449.519 39.3064C449.331 40.8075 449.144 42.1209 448.983 43.2735C448.93 43.5415 448.903 43.7828 448.876 44.0508C448.582 45.3643 447.057 51.0201 441.304 53.1376C439.565 53.7809 434.241 55.5501 434.241 55.5501C434.241 55.5501 444.809 53.8882 446.629 52.8964C448.448 51.9046 448.636 53.3521 448.582 53.9954C448.582 54.2366 449.117 54.9872 449.84 55.8181C450.482 57.1315 451.124 58.4182 451.739 59.7316C452.836 62.01 453.8 64.3688 454.95 66.5936C460.73 84.6064 468.436 114.386 467.419 142.156H467.606Z" fill="#1E1E1E"/>
</svg>
