<svg width="111" height="136" viewBox="0 0 111 136" fill="none" xmlns="http://www.w3.org/2000/svg">
<path d="M55.4998 10.5C54.8904 10.5 54.3357 10.8555 54.0818 11.4062L49.988 20.2382L40.2966 21.3827C39.6911 21.457 39.1833 21.871 38.9958 22.4492C38.8043 23.0273 38.9723 23.6639 39.4176 24.078L46.5856 30.6875L44.6794 40.2304C44.5584 40.8281 44.7966 41.4414 45.2927 41.8008C45.7849 42.1562 46.4411 42.1953 46.9763 41.8984L55.4958 37.1445L64.0075 41.9023H64.0114C64.5427 42.1992 65.1989 42.164 65.695 41.8047C66.1911 41.4492 66.4294 40.8359 66.3122 40.2383L64.4099 30.6914L71.574 24.0898H71.5779C72.0232 23.6757 72.1912 23.039 72.0037 22.4609C71.8162 21.8827 71.3084 21.4648 70.7029 21.3945L61.0076 20.2461L56.9217 11.4063C56.6678 10.8555 56.1131 10.5 55.4998 10.5ZM55.4998 15.7812L58.531 22.3398V22.3437C58.7614 22.8359 59.2263 23.1757 59.7693 23.2382L66.9646 24.0898L61.6443 28.9921C61.2458 29.3632 61.0661 29.9101 61.1716 30.4452L62.5818 37.5272L56.2615 33.9999V33.996C55.7888 33.7304 55.2068 33.7304 54.7342 33.996L48.41 37.5194L49.8241 30.4374V30.4413C49.9296 29.91 49.7499 29.3593 49.3514 28.9921L44.035 24.0859L51.2264 23.2343C51.7655 23.1718 52.2342 22.8359 52.4647 22.3437L55.4998 15.7812ZM26.6448 36.6172C26.2268 36.6172 25.8284 36.7813 25.5393 37.0781C24.9299 37.6875 24.9299 38.6758 25.5393 39.2851L32.8401 46.5742L32.8362 46.5781C33.4494 47.1875 34.4378 47.1875 35.0471 46.5781C35.6564 45.9649 35.6564 44.9765 35.0471 44.3672L27.7463 37.0781C27.4533 36.7852 27.0589 36.6172 26.6448 36.6172ZM84.3558 36.6172C83.9417 36.6172 83.5433 36.7813 83.2503 37.0781L75.9534 44.3672C75.344 44.9766 75.344 45.9649 75.9534 46.5781C76.5627 47.1875 77.5511 47.1875 78.1643 46.5781L85.4612 39.289L85.4573 39.2851C86.0705 38.6758 86.0705 37.6913 85.4651 37.0781C85.1721 36.7813 84.7738 36.6172 84.3558 36.6172ZM41.1878 48.7462C37.6995 48.7462 34.8558 51.629 34.8558 55.129V63.6915C31.7269 63.7813 29.2035 66.3946 29.2035 69.5509V78.8478C29.2035 86.3947 32.8363 92.9688 38.2738 97.3008V108.934L38.2777 108.938C38.2777 109.352 38.4417 109.75 38.7347 110.043C39.0277 110.336 39.4261 110.5 39.8402 110.5C40.2543 110.5 40.6527 110.336 40.9457 110.043C41.2387 109.75 41.4027 109.352 41.4027 108.938V96.7967C41.4027 96.2967 41.1644 95.828 40.7621 95.535C35.6527 91.8084 32.3324 85.7538 32.3324 78.847V69.5501C32.3324 67.9954 33.5121 66.8118 35.0238 66.8118H53.9338V69.4485C53.9338 71.2024 52.594 72.554 50.883 72.554H42.1252V72.5501H42.0588C42.051 72.5501 42.0432 72.554 42.0354 72.554C41.9651 72.554 41.8947 72.5579 41.8244 72.5696C41.8127 72.5696 41.7971 72.5735 41.7815 72.5774C41.7307 72.5853 41.676 72.597 41.6252 72.6087C41.6096 72.6165 41.594 72.6204 41.5783 72.6282C41.5744 72.6282 41.5705 72.6321 41.5627 72.6321C41.4924 72.6556 41.4221 72.6829 41.3557 72.7181C41.344 72.7259 41.3361 72.7298 41.3244 72.7376C41.2658 72.7688 41.2072 72.804 41.1525 72.8431C41.133 72.8587 41.1135 72.8743 41.094 72.8899C41.051 72.9251 41.008 72.9603 40.969 72.9954C40.9494 73.0189 40.926 73.0423 40.9065 73.0657C40.8713 73.1009 40.84 73.1399 40.8127 73.1751C40.7815 73.2181 40.7541 73.261 40.7268 73.304C40.715 73.3235 40.7033 73.3392 40.6916 73.3587C40.6916 73.3626 40.6877 73.3665 40.6877 73.3743C40.6604 73.4251 40.633 73.4798 40.6135 73.5345C40.6057 73.554 40.5979 73.5775 40.59 73.597C40.5705 73.6517 40.5549 73.7064 40.5393 73.765C40.5354 73.7884 40.5275 73.8118 40.5236 73.8353C40.5158 73.8861 40.508 73.9407 40.5041 73.9954C40.5041 74.0228 40.5002 74.054 40.5002 74.0814C40.5002 74.0931 40.4963 74.1048 40.4963 74.1126C40.5002 74.1556 40.5002 74.1946 40.5041 74.2376C40.508 74.265 40.508 74.2962 40.5119 74.3236C40.5197 74.3861 40.5354 74.4486 40.551 74.5111C40.5549 74.5267 40.5588 74.5384 40.5627 74.554C40.5822 74.6165 40.6018 74.6751 40.6291 74.7298C40.6369 74.7493 40.6447 74.7689 40.6525 74.7884C40.6799 74.8431 40.7111 74.8978 40.7424 74.9486C40.7541 74.9642 40.7619 74.9837 40.7736 74.9993C40.8049 75.0423 40.84 75.0853 40.8752 75.1243C40.8947 75.1478 40.9143 75.1712 40.9377 75.1946C40.9768 75.2376 41.0158 75.2728 41.0627 75.3079C41.0783 75.3236 41.094 75.3392 41.1096 75.3509C41.1604 75.39 41.2111 75.4212 41.2658 75.4525C41.2775 75.4642 41.2932 75.472 41.3049 75.4798C41.3049 75.4798 47.8908 79.179 47.6174 85.8898H47.6213C47.6018 86.3078 47.7502 86.7101 48.0315 87.0148C48.3127 87.3195 48.7033 87.5031 49.1213 87.5187C49.9806 87.55 50.7071 86.8781 50.7384 86.0187C50.9259 81.3546 48.6643 77.8937 46.5119 75.6787H50.8829C53.0118 75.6787 54.8908 74.581 56.0041 72.9209C57.1291 73.9561 58.6291 74.5967 60.2658 74.5967C62.1642 74.5967 63.8713 73.7412 65.0353 72.3975C66.1955 73.7413 67.9064 74.5967 69.8048 74.5967C70.9767 74.5967 72.0743 74.2725 73.0157 73.71V78.8545C73.0157 86.1162 69.336 92.4405 63.7735 96.1005V96.0927C63.332 96.3817 63.0703 96.8739 63.0703 97.4013V108.936C63.0703 109.35 63.2344 109.749 63.5274 110.042C63.8203 110.335 64.2188 110.499 64.6329 110.499C65.0469 110.499 65.4453 110.335 65.7383 110.042C66.0313 109.749 66.1954 109.35 66.1954 108.936V97.9443C72.1329 93.6513 76.1368 86.7923 76.1368 78.8503V58.3583C76.1368 54.8583 73.293 51.9794 69.8048 51.9794C68.4923 51.9794 67.2736 52.3856 66.2618 53.081C65.4102 50.5732 63.043 48.7451 60.2696 48.7451C58.3712 48.7451 56.6641 49.6006 55.5001 50.9443C54.3399 49.6005 52.629 48.7451 50.7306 48.7451C48.8322 48.7451 47.1212 49.6006 45.9611 50.9443C44.8009 49.6005 43.0939 48.7451 41.1916 48.7451L41.1878 48.7462ZM41.1878 51.8712C42.9847 51.8712 44.3948 53.2892 44.3948 55.129V63.6876H37.9807V55.129C37.9807 53.2892 39.391 51.8712 41.1878 51.8712ZM50.7269 51.8712C52.5238 51.8712 53.9339 53.2892 53.9339 55.129V63.6876H47.5198V55.129C47.5198 53.2892 48.9301 51.8712 50.7269 51.8712ZM60.266 51.8712C62.0629 51.8712 63.473 53.2892 63.473 55.129V68.215C63.473 70.0548 62.0628 71.465 60.266 71.465C58.4692 71.465 57.059 70.0548 57.059 68.215V55.129C57.059 53.2892 58.4731 51.8712 60.266 51.8712ZM69.8051 55.1095C71.602 55.1095 73.016 56.5197 73.016 58.3595V68.215C73.016 70.0548 71.598 71.465 69.8051 71.465C68.0082 71.465 66.5981 70.0548 66.5981 68.215V58.3595C66.5981 56.5197 68.0083 55.1095 69.8051 55.1095ZM17.4571 57.6056V57.6017C17.043 57.6017 16.6446 57.7658 16.3516 58.0626C16.0586 58.3556 15.8945 58.7501 15.8945 59.1642C15.8945 59.5822 16.0586 59.9767 16.3516 60.2697C16.6445 60.5666 17.043 60.7307 17.4571 60.7307H27.7811C28.1951 60.7307 28.5936 60.5666 28.8866 60.2697C29.1795 59.9768 29.3436 59.5822 29.3436 59.1642C29.3436 58.7502 29.1795 58.3556 28.8866 58.0626C28.5936 57.7658 28.1952 57.6017 27.7811 57.6017L17.4571 57.6056ZM83.2191 57.6056V57.6017C82.3558 57.6017 81.6566 58.3009 81.6566 59.1642C81.6566 59.5822 81.8206 59.9767 82.1136 60.2697C82.4066 60.5666 82.805 60.7306 83.2191 60.7306H93.5431C93.9572 60.7306 94.3556 60.5666 94.6486 60.2697C94.9416 59.9767 95.1056 59.5822 95.1056 59.1642C95.1056 58.7501 94.9416 58.3556 94.6486 58.0626C94.3556 57.7657 93.9572 57.6017 93.5431 57.6017L83.2191 57.6056Z" fill="black"/>
</svg>
