<svg width="76" height="70" viewBox="0 0 76 70" fill="none" xmlns="http://www.w3.org/2000/svg">
<path d="M73.6839 61.5H2.29688C1.4336 61.5 0.734375 60.8008 0.734375 59.9375V50.0234C0.734375 49.1602 1.4336 48.4609 2.29688 48.4609H73.6839C74.5472 48.4609 75.2464 49.1602 75.2464 50.0234V59.9375C75.2464 60.8008 74.5472 61.5 73.6839 61.5ZM3.85987 58.375H72.1219V51.5859L3.85987 51.582V58.375Z" fill="black"/>
<path d="M10.2266 69.875H2.29688C1.4336 69.875 0.734375 69.1758 0.734375 68.3125V59.9375C0.734375 59.0742 1.4336 58.375 2.29688 58.375H10.2266C11.0899 58.375 11.7891 59.0742 11.7891 59.9375V68.3125C11.7891 69.1758 11.0899 69.875 10.2266 69.875ZM3.85938 66.75H8.66407V61.5H3.85938V66.75Z" fill="black"/>
<path d="M73.6836 69.875H65.75C64.8867 69.875 64.1875 69.1758 64.1875 68.3125V59.9375C64.1875 59.0742 64.8867 58.375 65.75 58.375H73.6836C74.5469 58.375 75.2461 59.0742 75.2461 59.9375V68.3125C75.2461 69.1758 74.5469 69.875 73.6836 69.875ZM67.3125 66.75H72.1211V61.5H67.3125V66.75Z" fill="black"/>
<path d="M17.5275 51.5821H3.73047C2.86719 51.5821 2.16797 50.8829 2.16797 50.0196V46.4141C2.16797 43.5274 4.51567 41.1797 7.39847 41.1797H12.6524C16.1993 41.1797 19.086 44.0664 19.086 47.6172V50.0234C19.086 50.8867 18.3867 51.5859 17.5235 51.5859L17.5275 51.5821ZM5.29347 48.4571H15.9655V47.6133C15.9655 45.7891 14.4811 44.3008 12.6569 44.3008H7.40297C6.24277 44.3008 5.29747 45.2461 5.29747 46.4102V48.4532L5.29347 48.4571Z" fill="black"/>
<path d="M69.0434 51.5818C68.1802 51.5818 67.4809 50.8826 67.4809 50.0193V48.5623C67.4809 41.3982 61.6528 35.5703 54.4889 35.5703H28.7939C26.5127 35.5703 24.6611 37.4258 24.6611 39.7031V50.0191C24.6611 50.8824 23.9619 51.5816 23.0986 51.5816C22.2354 51.5816 21.5361 50.8824 21.5361 50.0191V39.7031C21.5361 35.6992 24.7939 32.4453 28.7939 32.4453H54.4889C63.3756 32.4453 70.6059 39.6758 70.6059 48.5623V50.0193C70.6059 50.8826 69.9067 51.5818 69.0434 51.5818Z" fill="black"/>
<path d="M12.3984 44.3047C8.42963 44.3047 5.20312 41.0781 5.20312 37.1094C5.20312 33.1407 8.43363 29.9141 12.3984 29.9141C16.3672 29.9141 19.5937 33.1407 19.5937 37.1094C19.5937 41.0781 16.3671 44.3047 12.3984 44.3047ZM12.3984 33.0387C10.1523 33.0387 8.32812 34.8629 8.32812 37.109C8.32812 39.3512 10.1562 41.1793 12.3984 41.1793C14.6445 41.1793 16.4687 39.3551 16.4687 37.109C16.4687 34.8629 14.6445 33.0387 12.3984 33.0387Z" fill="black"/>
<path d="M27.6563 25.625C24.5977 25.625 22.1094 23.1367 22.1094 20.0742C22.1094 17.0156 24.5977 14.5273 27.6563 14.5273C29.3829 14.5273 31.0313 15.3477 32.0586 16.7187C32.7812 17.6016 33.2031 18.8125 33.2031 20.0742C33.2031 23.1328 30.7149 25.625 27.6563 25.625ZM27.6563 17.6523C26.3204 17.6523 25.2344 18.7382 25.2344 20.0742C25.2344 21.4101 26.3203 22.5 27.6563 22.5C28.9923 22.5 30.0782 21.4141 30.0782 20.0742C30.0782 19.5313 29.9102 19.0195 29.5977 18.6445C29.1172 18.0039 28.4024 17.6524 27.6524 17.6524L27.6563 17.6523Z" fill="black"/>
<path d="M41.9775 14.6602C40.2509 14.6602 38.6064 13.8399 37.5752 12.4688C36.8369 11.5391 36.4307 10.3633 36.4307 9.1133C36.4307 6.0547 38.919 3.5625 41.9776 3.5625C45.0362 3.5625 47.5245 6.0508 47.5245 9.1133C47.5245 10.1758 47.2276 11.2031 46.6612 12.0781C45.6417 13.6914 43.8878 14.6601 41.9737 14.6601L41.9775 14.6602ZM41.9775 6.6875C40.6416 6.6875 39.5556 7.7734 39.5556 9.1133C39.5556 9.65236 39.7274 10.1524 40.0517 10.5625C41.0477 11.8906 43.1728 11.7617 44.0322 10.4023C44.2782 10.0195 44.4032 9.57812 44.4032 9.11714C44.4032 7.78124 43.3173 6.69134 41.9813 6.69134L41.9775 6.6875Z" fill="black"/>
<path d="M69.7188 11.2266C66.6602 11.2266 64.168 8.7383 64.168 5.6758C64.168 2.6172 66.6602 0.125 69.7188 0.125C72.7774 0.125 75.2696 2.6133 75.2696 5.6758C75.2696 8.7344 72.7774 11.2266 69.7188 11.2266ZM69.7188 3.25C68.3829 3.25 67.293 4.3398 67.293 5.6758C67.293 7.0117 68.3828 8.1016 69.7188 8.1016C71.0548 8.1016 72.1446 7.0118 72.1446 5.6758C72.1446 4.3399 71.0548 3.25 69.7188 3.25Z" fill="black"/>
<path d="M56.4492 23.8204C53.3906 23.8204 50.9023 21.3321 50.9023 18.2735C50.9023 17.2071 51.2031 16.1797 51.7656 15.3047C52.7812 13.6953 54.5351 12.7266 56.4492 12.7266C57.9414 12.7266 59.3476 13.3125 60.4101 14.375C61.4531 15.4453 62.0156 16.8242 62.0156 18.2773C62.0156 21.3359 59.5195 23.8242 56.4492 23.8242L56.4492 23.8204ZM56.4492 15.8477C55.6016 15.8477 54.8554 16.2617 54.3984 16.9844C54.1524 17.3672 54.0234 17.8086 54.0234 18.2696C54.0234 19.6055 55.1093 20.6915 56.4453 20.6915C57.793 20.6915 58.8867 19.6056 58.8867 18.2696C58.8867 17.6485 58.6289 17.0235 58.1797 16.5626C57.8594 16.2462 57.2852 15.8477 56.4414 15.8477L56.4492 15.8477Z" fill="black"/>
<path d="M53.0777 17.7152C52.7926 17.7152 52.4996 17.637 52.2418 17.473L44.5074 12.555C43.7808 12.0901 43.566 11.1253 44.0269 10.3988C44.4879 9.67221 45.4527 9.45346 46.1831 9.9183L53.9175 14.8363C54.6441 15.3011 54.8589 16.266 54.398 16.9925C54.1011 17.4613 53.5973 17.7152 53.0777 17.7152Z" fill="black"/>
<path d="M30.8116 19.2188C30.3428 19.2188 29.878 19.0078 29.5694 18.6055C29.0459 17.9219 29.1749 16.9375 29.8624 16.4141L37.8741 10.2852C38.5616 9.76176 39.542 9.89067 40.0654 10.5782C40.5889 11.2618 40.46 12.2462 39.7725 12.7696L31.7608 18.8985C31.4756 19.1133 31.1436 19.2188 30.8116 19.2188Z" fill="black"/>
<path d="M59.3088 17.0392C58.9025 17.0392 58.4963 16.8829 58.1877 16.5665C57.5861 15.9493 57.6017 14.9571 58.2189 14.3556L65.6134 7.15642C66.2345 6.55486 67.2228 6.57048 67.8243 7.18767C68.4259 7.80486 68.4103 8.79707 67.7931 9.39857L60.3986 16.5978C60.0939 16.8946 59.6994 17.0392 59.3088 17.0392Z" fill="black"/>
</svg>
