<svg width="70" height="70" viewBox="0 0 70 70" fill="none" xmlns="http://www.w3.org/2000/svg">
<path d="M20.9727 38.1446L20.3477 37.1212C19.3634 35.5118 10.9571 21.2192 17.7422 15.4572C20.793 12.8674 23.9297 12.1642 26.336 13.5353C28.9962 15.047 30.1719 18.7853 29.4141 23.2853C28.2149 30.3595 28.1993 34.8013 28.1993 34.8443V36.0123L20.9766 38.1451L20.9727 38.1446ZM23.6641 15.9686C22.5664 15.9686 21.2071 16.6092 19.7657 17.8358C16.0743 20.9686 20.0822 30.2338 22.418 34.4568L25.1055 33.6638C25.1798 31.8513 25.4415 28.031 26.3322 22.7618C26.8634 19.6368 26.2579 17.0821 24.793 16.2462C24.461 16.0587 24.0821 15.965 23.668 15.965L23.6641 15.9686Z" fill="black"/>
<path d="M25.8516 46.5782C22.6914 46.5782 21.2032 42.9923 20.8477 40.9571L20.6133 39.6055L29.6289 36.8086L30.2461 37.9102C30.4336 38.2422 32.0391 41.2383 30.8125 43.7852C30.3203 44.8008 29.1875 46.1016 26.5664 46.5235C26.3203 46.5626 26.082 46.5821 25.8515 46.5821L25.8516 46.5782ZM24.3243 41.7227C24.668 42.5977 25.2422 43.5625 26.0704 43.4336C27.1016 43.2695 27.7501 42.9297 27.9962 42.4297C28.2344 41.9375 28.1524 41.2266 27.9766 40.5938L24.3243 41.7266L24.3243 41.7227Z" fill="black"/>
<path d="M45.5036 45.1987L38.2809 43.0659V41.8979C38.2809 41.8549 38.2613 37.4135 37.0661 30.3389C36.3043 25.835 37.4801 22.1006 40.1403 20.5889C42.5544 19.2178 45.6833 19.917 48.738 22.5108C55.5271 28.2725 47.1169 42.5658 46.1325 44.1748L45.5075 45.1982L45.5036 45.1987ZM41.3708 40.7221L44.0583 41.5151C46.3942 37.2885 50.4021 28.0231 46.7106 24.8941C44.7184 23.2027 42.8864 22.6285 41.6833 23.3082C40.2185 24.1402 39.6169 26.6988 40.1481 29.8238C41.0387 35.0933 41.3004 38.9136 41.3747 40.7258L41.3708 40.7221Z" fill="black"/>
<path d="M40.6209 53.6329C40.3905 53.6329 40.1522 53.6133 39.9061 53.5743C37.285 53.1524 36.1522 51.8516 35.66 50.836C34.4334 48.2891 36.0389 45.293 36.2264 44.961L36.8436 43.8594L45.8553 46.6563L45.6209 48.0079C45.2654 50.0431 43.7811 53.629 40.6209 53.629L40.6209 53.6329ZM38.4959 47.6446C38.3201 48.2774 38.2381 48.9923 38.4764 49.4805C38.7225 49.9844 39.3709 50.3203 40.4022 50.4883C41.2577 50.625 41.8124 49.6562 42.1522 48.7813L38.4959 47.6446Z" fill="black"/>
<path d="M33.3318 69.34C23.1408 69.34 13.3478 65.0588 6.46485 57.422L6.05469 56.9649L6.15625 51.4493L7.55075 49.9962L13.4882 50.0314L13.9492 50.547C19.4648 56.7072 27.3902 59.8126 35.6482 59.0587C47.6052 57.9728 57.4022 48.5667 58.9452 36.6917C60.1171 27.6722 56.621 18.8637 49.5936 13.1367L49.0545 12.6992L48.7694 6.79692L50.1756 5.32032L55.6678 4.97266L56.1443 5.36328C65.5935 13.1172 70.4493 25.0273 69.1363 37.2263C67.3707 53.5973 54.2453 66.9843 37.9293 69.0543C36.3941 69.2496 34.8629 69.3433 33.3395 69.3433L33.3318 69.34ZM9.19885 55.778C16.4136 63.4928 26.9568 67.29 37.5268 65.95C52.4248 64.0594 64.4099 51.837 66.0229 36.888C67.2026 25.943 62.9447 15.255 54.6248 8.16497L51.9687 8.33294L52.1054 11.161C59.6171 17.5829 63.3204 27.223 62.039 37.091C60.3124 50.403 49.328 60.95 35.93 62.169C26.8909 62.9854 18.25 59.7042 12.094 53.1456L9.25017 53.13L9.19885 55.778Z" fill="black"/>
<path d="M6.95314 52.4843C2.83204 46.8788 0.652344 40.2263 0.652344 33.2343C0.652344 15.2693 15.2693 0.652344 33.2343 0.652344C39.664 0.652344 45.8863 2.53124 51.2223 6.08204L49.4918 8.68364C44.6676 5.47274 39.0468 3.77744 33.2338 3.77744C16.9918 3.77744 3.77684 16.9924 3.77684 33.2344C3.77684 39.5508 5.74564 45.5664 9.46824 50.6324L6.94874 52.484L6.95314 52.4843Z" fill="black"/>
<path d="M6.87498 55.2149L4.61328 53.0547L6.89058 55.1953L6.87498 55.2149Z" fill="black"/>
</svg>
