<svg width="54" height="72" viewBox="0 0 54 72" fill="none" xmlns="http://www.w3.org/2000/svg">
<path d="M27.2108 58.6292H5.97682C5.16041 58.6292 4.48462 58.0042 4.41822 57.1917L0.0744165 2.47267C0.0392595 2.03908 0.187697 1.60939 0.484577 1.28907C0.781457 0.968756 1.19552 0.785156 1.63298 0.785156H44.133C44.5705 0.785156 44.9845 0.968746 45.2814 1.28907C45.5783 1.60938 45.7267 2.03907 45.6915 2.47267L42.3477 44.6607C42.2813 45.52 41.5274 46.1607 40.668 46.0943C39.8087 46.024 39.1641 45.274 39.2344 44.4146L42.4453 3.91457H3.32834L7.42214 55.5086H27.2111C28.0744 55.5086 28.7736 56.2078 28.7736 57.0711C28.7736 57.9343 28.0744 58.6336 27.2111 58.6336L27.2108 58.6292Z" fill="black"/>
<path d="M28.0737 22.2072C24.7534 22.2072 21.0698 21.4572 17.1757 19.4338C8.88662 15.1252 5.76172 15.4924 4.80472 15.8518C4.33206 16.0276 4.2305 16.2502 4.22269 16.2776L2.71489 15.8791L1.17969 15.5979C1.22656 15.3283 1.5586 13.9534 3.26559 13.1174C6.18359 11.6916 11.3476 12.883 18.6206 16.6604C31.6436 23.426 41.6406 14.1096 42.0586 13.7112C42.6836 13.1174 43.6719 13.137 44.2656 13.758C44.8632 14.3791 44.8437 15.3674 44.2226 15.965C44.1367 16.0471 37.585 22.2072 28.0737 22.2072Z" fill="black"/>
<path d="M39.7846 71.2148C31.9877 71.2148 25.6396 64.871 25.6396 57.0698C25.6396 49.2729 31.9834 42.9248 39.7846 42.9248C47.5815 42.9248 53.9296 49.2686 53.9296 57.0698C53.9296 64.8667 47.5858 71.2148 39.7846 71.2148ZM39.7846 46.0508C33.7104 46.0508 28.7646 50.9922 28.7646 57.0708C28.7646 63.145 33.706 68.0908 39.7846 68.0908C45.8588 68.0908 50.8046 63.1494 50.8046 57.0708C50.8046 50.9966 45.8632 46.0508 39.7846 46.0508Z" fill="black"/>
<path d="M38.2105 61.5736C37.8238 61.5736 37.4371 61.4291 37.1363 61.144L33.3472 57.5542C32.7222 56.9604 32.6949 55.9722 33.2887 55.3433C33.8824 54.7144 34.8707 54.6909 35.4996 55.2847L38.191 57.8355L45.2965 50.8199C45.9097 50.2144 46.8981 50.2183 47.5074 50.8355C48.1128 51.4488 48.1089 52.4371 47.4917 53.0464L39.312 61.1245C39.0073 61.4253 38.6128 61.5737 38.2143 61.5737L38.2105 61.5736Z" fill="black"/>
</svg>
