<svg width="544" height="659" viewBox="0 0 544 659" fill="none" xmlns="http://www.w3.org/2000/svg">
<path d="M237.041 279.719L243.857 266.439C244.604 264.961 245.58 263.618 246.748 262.447L256.991 252.046C257.584 251.432 256.895 250.453 256.129 250.818L246.097 255.596C241.081 257.995 237.635 262.793 236.946 268.32L235.605 279.278C235.51 280.122 236.639 280.467 237.022 279.719H237.041Z" fill="#1E1E1E"/>
<path d="M267.349 295.186C269.359 294.822 270.47 290.043 270.47 290.043C262.046 293.344 247.935 288.393 247.935 288.393C244.604 287.395 243.953 289.122 243.953 289.122C251.879 295.743 267.349 295.186 267.349 295.186Z" fill="#1E1E1E"/>
<path d="M300.145 266.439L306.96 279.719C307.343 280.467 308.492 280.122 308.377 279.278L307.037 268.32C306.367 262.793 302.921 257.995 297.885 255.596L287.853 250.818C287.087 250.453 286.398 251.432 286.992 252.046L297.234 262.447C298.402 263.618 299.36 264.961 300.125 266.439H300.145Z" fill="#1E1E1E"/>
<path d="M275.122 295.186C275.122 295.186 290.591 295.743 298.517 289.122C298.517 289.122 297.867 287.395 294.535 288.393C294.535 288.393 280.425 293.344 272.001 290.043C272.001 290.043 273.092 294.822 275.122 295.186Z" fill="#1E1E1E"/>
<path d="M268.21 319.577C270.852 319.098 272.288 312.842 272.288 312.842C261.241 317.179 242.728 310.673 242.728 310.673C238.363 309.368 237.501 311.633 237.501 311.633C247.897 320.307 268.191 319.577 268.191 319.577H268.21Z" fill="#1E1E1E"/>
<path d="M278.395 319.577C278.395 319.577 298.69 320.307 309.086 311.633C309.086 311.633 308.224 309.368 303.859 310.673C303.859 310.673 285.364 317.179 274.298 312.842C274.298 312.842 275.734 319.098 278.376 319.577H278.395Z" fill="#1E1E1E"/>
<path d="M278.357 374.98C271.274 376.803 263.558 375.441 257.336 371.372C255 369.837 252.856 368.014 250.864 366.076C247.093 362.41 243.742 358.304 240.89 353.852C242.708 361.777 246.92 369.281 253.277 374.328C255.689 376.228 258.369 377.782 261.222 378.895C262.447 379.375 263.711 379.778 264.994 380.104C268.938 381.083 273.112 381.217 277.113 380.488C283.584 379.336 289.577 375.94 294.114 371.161C298.652 366.383 301.696 360.28 303.074 353.852C302.902 354.696 301.715 355.867 301.217 356.577C300.547 357.517 299.858 358.438 299.149 359.34C297.733 361.144 296.22 362.89 294.612 364.521C291.453 367.765 287.873 370.643 283.89 372.812C282.11 373.771 280.253 374.5 278.357 374.98Z" fill="#1E1E1E"/>
<path d="M514.134 74.9375C498.741 53.2907 497.899 46.1327 494.433 39.013C485.09 20.0145 487.943 26.1938 486.009 22.6436C484.056 19.0933 457.253 4.16316 450.437 4.77726C443.583 2.26331 443.143 -0.404163 439.677 0.0755981C436.212 0.555359 418.789 16.4642 420.915 21.5305C422.733 25.8868 425.816 30.147 428.171 30.646C425.107 31.1449 416.99 33.2943 421.068 38.4757C426.371 42.1219 434.355 43.0814 435.752 43.1773C437.341 43.2733 443.181 41.7764 444.751 41.8916C446.206 41.9875 452.083 44.5399 457.08 44.3863C462.077 44.2328 465.734 43.9258 467.974 43.6187C470.214 43.3309 476.226 45.8832 478.562 59.7003C480.917 73.5174 493.285 126.406 493.285 126.426C491.944 126.349 479.768 124.526 470.999 121.877C461.312 118.96 452.486 112.877 445.804 111.687C426.046 108.175 416.932 113.53 408.259 113.184C399.587 112.839 395.107 104.568 379.292 102.437C363.478 100.307 351.11 105.201 345.692 106.986C340.274 108.77 338.914 112.493 319.156 110.593C302.576 107.446 299.743 90.4434 299.743 90.4434C299.743 90.4434 297.235 82.2107 296.794 76.9717L296.737 75.5516C299.034 73.4023 309.411 59.1438 311.096 55.3825C313.432 50.4313 313.891 42.0259 314.619 36.8637C314.006 36.4991 313.374 36.1536 312.781 35.7506C312.034 43.0238 310.675 51.2949 306.788 57.148C304.702 60.2952 290.63 83.8227 272.614 84.763C272.403 84.763 272.192 84.7822 271.982 84.7822C271.771 84.7822 271.561 84.7822 271.35 84.763C253.334 83.8227 239.262 60.2952 237.175 57.148C233.289 51.2949 231.929 43.0238 231.183 35.7506C230.589 36.1536 229.957 36.4991 229.345 36.8637C230.072 42.0067 230.532 50.4313 232.868 55.3825C234.552 59.1438 244.948 73.4023 247.227 75.5516L247.169 76.9717C246.729 82.2107 244.221 90.4434 244.221 90.4434C244.221 90.4434 241.368 107.446 224.807 110.593C205.049 112.474 203.709 108.751 198.272 106.986C192.854 105.201 180.486 100.307 164.671 102.437C148.857 104.568 144.377 112.839 135.704 113.184C127.031 113.53 117.918 108.175 98.1599 111.687C91.4973 112.877 82.6521 118.98 72.9644 121.877C64.215 124.506 52.0193 126.349 50.6791 126.426C50.6791 126.426 63.0471 73.5174 65.402 59.7003C67.7569 45.8832 73.7686 43.3117 75.9894 43.6187C78.2295 43.9066 81.8862 44.2328 86.8832 44.3863C91.8802 44.5399 97.7579 41.9875 99.2129 41.8916C100.802 41.7764 106.622 43.2925 108.211 43.1773C109.609 43.0814 117.593 42.1219 122.896 38.4757C126.974 33.2943 118.856 31.1449 115.793 30.6652C118.148 30.1662 121.23 25.9251 123.049 21.5497C125.212 16.445 107.809 0.536169 104.344 0.0564076C100.879 -0.423354 100.438 2.24412 93.5841 4.75807C86.7683 4.14397 59.9647 19.0741 58.0118 22.6244C56.059 26.1746 58.9117 19.9953 49.5878 38.9938C46.1225 46.1327 45.2801 53.2715 29.8871 74.9184C16.1406 93.0533 0.135001 146.115 0.000982252 151.316C-0.133036 156.516 13.4794 166.86 20.9844 169.758C28.4895 172.655 41.6807 171.293 54.8911 171.216C68.1206 171.139 96.7814 174.382 106.297 173.711C115.812 173.039 142.271 168.05 142.271 168.05C142.271 168.05 151.863 165.862 158.736 167.723C171.525 169.949 174.34 200.635 181.213 215.201C188.086 229.785 208.246 274.48 211.271 280.851C214.296 287.222 211.329 294.131 211.329 294.131C211.329 294.131 187.282 339.132 181.424 394.593C180.217 419.867 186.976 451.281 202.484 502.002C202.484 502.002 188.986 596.169 202.484 658.98C202.484 658.98 203.154 550.496 214.699 517.431C214.699 517.431 233.385 511.367 235.586 497.588C235.586 497.588 213.588 508.853 206.447 483.118C206.447 483.118 203.288 466.212 209.395 441.667C212.554 428.963 210.755 415.587 204.034 404.361C200.301 398.105 196.549 389.949 194.06 379.816C194.557 370.701 196.721 361.681 200.607 353.257C200.895 352.662 201.009 352.067 201.029 351.491C201.182 351.414 201.335 351.28 201.488 351.203C206.466 339.132 217.934 291.578 216.939 285.265C215.866 278.567 212.88 265.978 209.395 256.882C202.101 237.826 228.196 239.975 242.689 233.067C252.492 228.384 257.048 216.352 257.297 211.785C237.769 226.485 226.492 226.062 226.492 226.062C202.426 226.964 192.988 210.518 190.728 204.435C188.22 197.641 187.703 180.965 194.691 167.455C197.563 161.909 204.398 151.392 207.021 142.066C210.812 128.556 209.816 116.37 208.821 115.487C207.155 113.971 223.793 113.069 224.865 116.255C225.937 119.44 226.684 155.71 234.227 165.747C237.75 170.429 242.153 174.382 247.38 177.05C253.411 180.12 260.054 181.061 266.774 180.523C268.44 180.389 270.201 180.236 271.982 180.063C273.762 180.236 275.524 180.389 277.189 180.523C283.909 181.08 290.534 180.12 296.584 177.05C301.811 174.382 306.214 170.429 309.737 165.747C317.28 155.71 318.027 119.44 319.099 116.255C320.171 113.069 336.808 113.971 335.143 115.487C334.147 116.37 333.133 128.556 336.943 142.066C339.565 151.392 346.4 161.909 349.272 167.455C356.279 180.965 355.743 197.622 353.235 204.435C350.995 210.518 341.557 226.964 317.472 226.062C317.472 226.062 306.195 226.485 286.666 211.785C286.915 216.352 291.472 228.384 301.274 233.067C315.748 239.995 341.863 237.845 334.568 256.882C331.084 265.978 328.097 273.002 327.025 279.7C326.01 286.013 337.498 339.152 342.476 351.203C342.648 351.28 342.782 351.395 342.935 351.491C342.935 352.067 343.088 352.643 343.356 353.257C347.243 361.662 349.387 370.701 349.904 379.816C347.3 390.486 343.299 398.949 339.355 405.301C332.845 415.817 331.218 428.617 334.3 440.592C340.772 465.693 337.517 483.099 337.517 483.099C330.376 508.853 308.377 497.569 308.377 497.569C310.579 511.348 329.265 517.412 329.265 517.412C340.81 550.477 341.48 658.96 341.48 658.96C354.978 596.15 341.48 501.983 341.48 501.983C356.988 451.281 359.477 412.881 358.251 387.608C358.577 379.125 357.6 370.624 355.38 362.391C354.901 359.916 354.441 357.862 354.02 356.25C354.116 356.154 354.193 356.058 354.154 355.982C353.733 354.696 353.293 353.391 352.833 352.086C352.776 351.913 352.738 351.798 352.738 351.798C344.409 327.637 332.635 288.546 332.635 288.546C332.635 288.546 329.667 281.638 332.692 275.267C335.717 268.895 355.897 229.766 362.751 215.181C369.624 200.597 372.438 169.911 385.227 167.704C392.101 165.843 401.693 168.03 401.693 168.03C401.693 168.03 428.171 173.02 437.667 173.692C447.182 174.363 475.843 171.12 489.073 171.197C502.302 171.274 515.474 172.655 522.979 169.738C530.484 166.821 544.097 156.497 543.963 151.296C543.829 146.096 527.823 93.0149 514.096 74.8992L514.134 74.9375ZM203.709 143.601C203.518 144.196 184.946 178.95 181.768 171.062C179.835 166.284 164.212 156.42 157.913 153.215C151.844 148.686 144.588 145.75 140.644 145.347C135.57 144.829 134.249 145.616 135.206 146C143.094 149.032 150.197 153.273 156.305 159.049C156.075 159.99 133.407 164.557 103.999 167.013C96.4177 167.762 81.8288 162.101 74.3238 160.642C67.3931 159.299 38.292 169.738 23.9137 164.73C10.665 160.124 3.7535 149.78 3.27486 149.166C2.66221 147.689 8.86534 129.957 9.478 127.961C9.99493 126.291 19.6825 96.3733 34.75 72.8842C56.8822 38.3989 54.7379 28.4199 60.1753 23.2577C65.6126 18.0954 84.9495 10.0546 92.4163 9.03754C99.883 8.02044 103.578 31.7398 103.655 31.8934C103.655 31.8934 101.396 39.5312 91.0952 40.4331C80.795 41.3351 67.6229 35.4244 64.1384 48.1669C56.4419 76.3384 43.2506 130.168 41.8913 133.66C39.747 136.904 37.3347 141.356 38.2728 140.684C41.2787 138.477 43.2315 135.618 47.3861 133.142C55.1208 131.549 67.4888 127.251 71.6243 126.464C76.5064 125.543 89.9656 115.545 108.173 113.837C126.38 112.129 132.201 118.864 140.95 118.212C142.424 115.928 153.337 108.118 170.74 105.988C188.144 103.858 200.799 113.568 202.847 114.585C205.93 116.082 208.074 130.398 203.671 143.601H203.709ZM305.257 159.222C299.054 168.069 287.873 176.493 276.883 176.378C276.041 176.378 275.237 176.301 274.432 176.263V175.783C273.647 175.898 272.824 175.975 272.02 176.071C271.197 175.994 270.393 175.898 269.608 175.783V176.263C268.804 176.301 268 176.378 267.157 176.378C256.168 176.493 244.987 168.088 238.784 159.222C233.404 151.546 231.872 133.929 231.279 124.622C231.527 122.204 236.505 126.598 244.297 130.379C250.749 133.507 255.919 132.662 258.101 136.117C260.284 139.571 260.495 140.991 261.605 142.258C262.62 143.39 264.879 146.019 268.057 145.712C270.086 145.52 271.35 143.889 272.02 142.43C272.69 143.889 273.935 145.52 275.983 145.712C279.161 146.019 281.421 143.39 282.435 142.258C283.565 141.01 283.756 139.59 285.939 136.117C288.121 132.662 293.291 133.507 299.743 130.379C307.535 126.579 312.513 122.204 312.762 124.622C312.168 133.929 310.637 151.546 305.257 159.222ZM302.615 124.622C293.808 130.033 292.219 129.957 286.418 132.048C280.616 134.14 279.142 142.526 276.73 142.526C275.237 142.526 273.571 141.586 272.518 140.953C272.556 140.742 272.595 140.55 272.595 140.415C272.595 140.319 272.365 140.435 272.02 140.646C271.656 140.435 271.427 140.3 271.446 140.415C271.446 140.569 271.484 140.742 271.522 140.953C270.469 141.586 268.804 142.526 267.31 142.526C264.879 142.526 263.424 134.159 257.623 132.048C251.822 129.957 250.233 130.014 241.426 124.622C232.619 119.21 229.766 115.967 229.766 115.967C229.957 115.717 239.798 108.329 243.436 101.132C246.978 94.1088 249.735 80.3492 249.792 80.0422C249.735 80.3876 257.68 90.9999 269.608 92.8038V93.0533C270.201 93.0533 270.795 93.0917 271.407 93.0725C271.618 93.0725 271.81 93.0341 272.02 93.0341C272.231 93.0341 272.422 93.0725 272.633 93.0725C273.265 93.0725 273.839 93.0725 274.432 93.0533V92.8038C286.36 90.9999 294.305 80.3876 294.248 80.0422C294.305 80.3492 297.062 94.1088 300.604 101.132C304.223 108.329 314.083 115.717 314.274 115.967C314.274 115.967 311.422 119.21 302.615 124.622ZM520.107 164.73C505.729 169.738 476.628 159.28 469.697 160.642C462.211 162.101 447.603 167.762 440.022 167.013C410.614 164.557 387.946 159.99 387.716 159.049C393.824 153.273 400.927 149.032 408.815 146C409.772 145.635 408.451 144.848 403.377 145.347C399.433 145.75 392.158 148.686 386.108 153.215C379.809 156.42 364.187 166.284 362.253 171.062C359.075 178.95 340.504 144.196 340.312 143.601C335.928 130.398 338.072 116.082 341.135 114.585C343.203 113.587 355.858 103.877 373.242 105.988C390.626 108.099 401.559 115.928 403.033 118.212C411.782 118.864 417.622 112.129 435.81 113.837C454.017 115.545 467.476 125.543 472.359 126.464C476.494 127.251 488.862 131.549 496.597 133.142C500.751 135.618 502.704 138.477 505.71 140.684C506.648 141.375 504.236 136.904 502.091 133.66C500.732 130.187 487.541 76.3576 479.844 48.1669C476.36 35.4244 463.188 41.3351 452.888 40.4331C442.587 39.5312 440.328 31.8934 440.328 31.8934C440.405 31.7398 444.1 8.02044 451.567 9.03754C459.033 10.0546 478.351 18.0954 483.808 23.2577C489.264 28.4199 487.101 38.3989 509.233 72.8842C524.319 96.3733 533.988 126.31 534.505 127.961C535.117 129.957 541.321 147.689 540.708 149.166C540.248 149.78 533.318 160.105 520.069 164.73H520.107Z" fill="#1E1E1E"/>
<path d="M304.51 523.131L294.248 488.78C294.248 488.78 298.134 492.08 309.641 484.366C309.641 484.366 286.59 473.447 274.356 406.76C274.375 405.915 274.413 405.071 274.432 404.227H269.569C269.569 405.071 269.627 405.915 269.646 406.76C257.412 473.447 234.361 484.366 234.361 484.366C245.867 492.08 249.754 488.78 249.754 488.78L239.492 523.131C252.511 549.671 234.361 562.625 234.361 562.625V658.999C234.361 658.999 255.67 556.196 248.854 512.115C248.854 512.115 265.587 475.097 272.001 432.129C278.415 475.078 295.148 512.115 295.148 512.115C288.351 556.196 309.641 658.999 309.641 658.999V562.625C309.641 562.625 291.491 549.671 304.51 523.131Z" fill="#1E1E1E"/>
<path d="M273.245 265.441C273.245 265.441 270.489 300.464 274.892 332.435C274.892 332.435 265.549 298.737 273.245 265.441Z" fill="#1E1E1E"/>
</svg>
