<svg width="82" height="69" viewBox="0 0 82 69" fill="none" xmlns="http://www.w3.org/2000/svg">
<path d="M15.5625 14.4921C11.7578 14.4921 8.66016 11.3944 8.66016 7.5898C8.66016 3.7851 11.7579 0.6875 15.5625 0.6875C19.3671 0.6875 22.4648 3.7852 22.4648 7.5898C22.4648 11.3945 19.3671 14.4921 15.5625 14.4921ZM15.5625 3.8121C13.4805 3.8121 11.7852 5.5074 11.7852 7.5894C11.7852 9.6714 13.4805 11.3667 15.5625 11.3667C17.6445 11.3667 19.3398 9.6714 19.3398 7.5894C19.3398 5.5074 17.6445 3.8121 15.5625 3.8121Z" fill="black"/>
<path d="M14.3356 43.5817C13.4255 43.5817 12.5192 43.32 11.7145 42.8044C10.2379 41.8552 9.40203 40.2419 9.48403 38.488L10.2223 22.461C10.2418 21.9961 10.4684 21.5704 10.8356 21.2891L22.3356 12.5508L29.9762 7.75779C30.3473 7.52342 30.8004 7.46092 31.2223 7.5781L49.1243 12.5273C50.886 13.0156 52.2141 14.4296 52.5891 16.2187C52.9641 18.0078 52.3157 19.8359 50.8977 20.9882L36.3667 32.8042C36.3511 32.8159 36.3394 32.8276 36.3237 32.8354C36.2417 32.8979 36.1518 32.9526 36.062 32.9995L16.566 43.0385C15.8551 43.4057 15.0933 43.5854 14.3355 43.5854L14.3356 43.5817ZM13.3122 23.3357L12.6091 38.6327C12.5661 39.5351 13.1521 40.0116 13.406 40.1757C13.6599 40.3398 14.3396 40.6718 15.1404 40.2578L32.9564 31.0859L28.9408 26.125L28.847 27.4961C28.8119 28 28.5345 28.4609 28.101 28.7227L23.8276 31.3243C23.8197 31.3282 23.8119 31.336 23.8002 31.3399L17.933 34.9102C17.433 35.2149 16.808 35.2149 16.308 34.9102C15.808 34.6055 15.5229 34.0469 15.5619 33.4649L16.2611 23.5157C16.3041 22.8751 16.7377 22.3282 17.347 22.1368C17.9603 21.9454 18.6282 22.1446 19.0306 22.6407L23.3509 27.9532L25.7806 26.4727L26.0892 21.9415C26.1322 21.3009 26.5658 20.754 27.179 20.5587C27.7923 20.3673 28.4602 20.5665 28.8665 21.0665L35.6048 29.3946L48.9248 18.5626C49.4405 18.1446 49.6631 17.5079 49.5303 16.8595C49.3936 16.2111 48.9287 15.7189 48.292 15.5392L31.054 10.7736L24.1126 15.1213L13.3122 23.3357ZM19.1052 27.6755L18.8943 30.6677L20.6599 29.5896L19.1052 27.6755Z" fill="black"/>
<path d="M35.2969 24.5817C35.2305 24.5817 35.1641 24.5778 35.1016 24.57L27.4571 23.6013C26.6017 23.4919 25.9962 22.7106 26.1055 21.8552C26.2148 20.9997 27.0001 20.4021 27.8516 20.5036L34.918 21.402L35.3868 21.0895L32.211 16.652C31.8164 16.0973 31.8243 15.3512 32.2305 14.8082C32.6368 14.2613 33.3516 14.0426 33.9961 14.2691L42.3711 17.1832C42.9297 17.3786 43.332 17.8747 43.4102 18.4605C43.4844 19.0504 43.2188 19.6285 42.7266 19.9566L38.4922 22.7769C38.4766 22.7887 38.4571 22.8004 38.4414 22.8082L36.1719 24.3238C35.9141 24.4957 35.6133 24.5855 35.3047 24.5855L35.2969 24.5817ZM37.6133 18.8278L37.9844 19.3474L38.3672 19.0896L37.6094 18.8278H37.6133Z" fill="black"/>
<path d="M17.7026 67.0552H2.28863C1.55426 67.0552 0.917529 66.5435 0.761329 65.8247C0.605129 65.1059 0.972269 64.3755 1.64024 64.0708L9.22224 60.606V47.872C9.22224 45.0087 11.3706 42.6259 14.2183 42.3251L30.9603 40.5673L27.5033 37.1103C26.894 36.5009 26.894 35.5087 27.5033 34.8994C28.1127 34.29 29.101 34.29 29.7142 34.8994L35.4876 40.6728C35.9134 41.0986 36.058 41.7314 35.8548 42.2978C35.6517 42.8642 35.1439 43.2666 34.5462 43.329L14.5462 45.4306C13.2962 45.5634 12.3509 46.6103 12.3509 47.8681V61.6061C12.3509 62.2194 11.9955 62.7741 11.4369 63.028L9.46807 63.9265H16.14V50.7425C16.14 49.9065 16.8001 49.2191 17.6361 49.18L54.3861 47.5941H54.3822C54.3626 47.5941 54.4329 47.5823 54.472 47.4808C54.515 47.3753 54.4603 47.3167 54.4369 47.2894C54.3978 47.2464 54.3587 47.2034 54.3275 47.1527L40.1715 27.5747C39.6676 26.8754 39.8238 25.8989 40.523 25.3911C41.2222 24.8871 42.1988 25.0434 42.7066 25.7426L56.8156 45.2626C57.6125 46.1923 57.8312 47.4657 57.382 48.6142C56.925 49.7939 55.8547 50.5947 54.5968 50.708L19.2648 52.2314V65.4814C19.2648 66.3447 18.5656 67.0439 17.7023 67.0439L17.7026 67.0552Z" fill="black"/>
<path d="M79.7113 68.8754C79.2894 68.8754 78.8754 68.7035 78.5746 68.3871L72.8832 62.3559L60.3212 60.5317C60.1337 60.5044 59.9501 60.4419 59.7861 60.352L44.5561 51.8715C43.8022 51.4536 43.5327 50.5004 43.9506 49.7465C44.3725 48.9926 45.3217 48.7231 46.0756 49.1411L61.0556 57.4809L73.8676 59.3403C74.2153 59.391 74.5356 59.559 74.7817 59.8129L78.145 63.3793V54.6371L62.668 52.891C62.4258 52.8637 62.1875 52.7777 61.9844 52.6449L55.0664 48.0824C54.3476 47.6059 54.1484 46.6371 54.6211 45.9183C55.0976 45.1996 56.0664 44.9964 56.7852 45.473L63.3907 49.8285L79.8827 51.6879C80.6717 51.7778 81.2694 52.4457 81.2694 53.2387V67.3087C81.2694 67.9493 80.8787 68.5235 80.285 68.7618C80.0975 68.836 79.9022 68.8712 79.7069 68.8712L79.7113 68.8754Z" fill="black"/>
</svg>
